<svg width="36" height="36" viewBox="0 0 36 36" fill="none" xmlns="http://www.w3.org/2000/svg">
<circle cx="18" cy="18" r="18" fill="#DEF1E8"/>
<path d="M28.2315 19.6578L21.4105 9H14.5895L20.8369 19.6578H28.2315Z" fill="#FFC107"/>
<path d="M11.179 26.0526H24.821L28.2315 19.658H15.0158L11.179 26.0526Z" fill="#2196F3"/>
<path d="M15.0158 19.658L17.6489 26.0526H11.179L15.0158 19.658Z" fill="url(#paint0_linear_1942_391)"/>
<path d="M14.5895 9L7.76853 19.6578L11.179 26.0525L18.0339 14.876L14.5895 9Z" fill="#00B060"/>
<path d="M14.5895 9L16.9545 16.636L18.0339 14.876L14.5895 9Z" fill="url(#paint1_linear_1942_391)"/>
<path d="M28.2315 19.6578L21.4105 9H14.5895L20.8369 19.6578H28.2315Z" fill="url(#paint2_linear_1942_391)"/>
<path d="M11.179 26.0526H24.821L28.2315 19.658H15.0158L11.179 26.0526Z" fill="url(#paint3_linear_1942_391)"/>
<path d="M14.5895 9L7.76853 19.6578L11.179 26.0525L18.0339 14.876L14.5895 9Z" fill="url(#paint4_linear_1942_391)"/>
<path d="M21.4105 9H14.5895L7.76853 19.6578L11.179 26.0525H24.821L28.2315 19.6578L21.4105 9ZM15.1011 19.6578L18.0339 14.876L20.8369 19.6578H15.1011Z" fill="url(#paint5_linear_1942_391)"/>
<defs>
<linearGradient id="paint0_linear_1942_391" x1="12.458" y1="22.2158" x2="16.9719" y2="26.7297" gradientUnits="userSpaceOnUse">
<stop stop-opacity="0.1"/>
<stop offset="1" stop-opacity="0"/>
</linearGradient>
<linearGradient id="paint1_linear_1942_391" x1="13.2718" y1="10.3177" x2="18.2723" y2="15.3182" gradientUnits="userSpaceOnUse">
<stop stop-opacity="0.1"/>
<stop offset="1" stop-opacity="0"/>
</linearGradient>
<linearGradient id="paint2_linear_1942_391" x1="17.058" y1="8.52925" x2="24.3053" y2="18.8673" gradientUnits="userSpaceOnUse">
<stop stop-color="white" stop-opacity="0.3"/>
<stop offset="1" stop-color="white" stop-opacity="0"/>
</linearGradient>
<linearGradient id="paint3_linear_1942_391" x1="13.9265" y1="20.1606" x2="25.484" y2="25.55" gradientUnits="userSpaceOnUse">
<stop stop-color="white" stop-opacity="0"/>
<stop offset="1" stop-color="white" stop-opacity="0.2"/>
</linearGradient>
<linearGradient id="paint4_linear_1942_391" x1="7.93078" y1="19.6454" x2="17.8958" y2="15.3823" gradientUnits="userSpaceOnUse">
<stop stop-color="white" stop-opacity="0.2"/>
<stop offset="1" stop-color="white" stop-opacity="0"/>
</linearGradient>
<linearGradient id="paint5_linear_1942_391" x1="10.1078" y1="14.6412" x2="26.916" y2="22.479" gradientUnits="userSpaceOnUse">
<stop stop-color="white" stop-opacity="0.2"/>
<stop offset="1" stop-color="white" stop-opacity="0"/>
</linearGradient>
</defs>
</svg>
