<svg width="36" height="36" viewBox="0 0 36 36" fill="none" xmlns="http://www.w3.org/2000/svg">
<circle cx="18" cy="18" r="18" fill="#E6FCFF"/>
<path d="M23.7272 9H12.2727C10.4652 9 9 10.4652 9 12.2727V23.7272C9 25.5347 10.4652 26.9999 12.2727 26.9999H23.7272C25.5347 26.9999 26.9999 25.5347 26.9999 23.7272V12.2727C26.9999 10.4652 25.5347 9 23.7272 9Z" fill="url(#paint0_linear_1942_418)"/>
<path d="M13.9091 15.5454C14.8128 15.5454 15.5454 14.8128 15.5454 13.9091C15.5454 13.0053 14.8128 12.2727 13.9091 12.2727C13.0054 12.2727 12.2727 13.0053 12.2727 13.9091C12.2727 14.8128 13.0054 15.5454 13.9091 15.5454Z" fill="white"/>
<path d="M27 22.9095V23.7276C27 24.5956 26.6552 25.428 26.0414 26.0418C25.4277 26.6555 24.5953 27.0003 23.7273 27.0003H12.2728C11.5325 27.0008 10.8138 26.7503 10.2343 26.2896C9.65474 25.8289 9.2485 25.1854 9.08192 24.464L14.9671 18.5789C15.1205 18.4255 15.3286 18.3393 15.5455 18.3393C15.7625 18.3393 15.9705 18.4255 16.124 18.5789L17.6024 20.0573C17.6817 20.1365 17.7764 20.1985 17.8807 20.2396C17.985 20.2807 18.0966 20.2999 18.2086 20.2961C18.3206 20.2922 18.4306 20.2654 18.5318 20.2173C18.633 20.1692 18.7233 20.1008 18.797 20.0164L20.7 17.8417C20.7737 17.7572 20.864 17.6889 20.9652 17.6408C21.0664 17.5926 21.1764 17.5658 21.2884 17.562C21.4004 17.5582 21.512 17.5774 21.6163 17.6185C21.7206 17.6595 21.8153 17.7216 21.8946 17.8008L27 22.9095Z" fill="url(#paint1_linear_1942_418)"/>
<defs>
<linearGradient id="paint0_linear_1942_418" x1="17.9999" y1="9" x2="17.9999" y2="22.1735" gradientUnits="userSpaceOnUse">
<stop stop-color="#A6F9FF"/>
<stop offset="1" stop-color="#3ED0F7"/>
</linearGradient>
<linearGradient id="paint1_linear_1942_418" x1="18.041" y1="18.1305" x2="18.041" y2="26.6993" gradientUnits="userSpaceOnUse">
<stop stop-color="#A6F9FF"/>
<stop offset="1" stop-color="#3ED0F7"/>
</linearGradient>
</defs>
</svg>
