<svg width="17" height="17" viewBox="0 0 17 17" fill="none" xmlns="http://www.w3.org/2000/svg">
<path d="M15.1786 8.50001H14.5714V4.62645L15.4518 4.18323C15.5327 4.14341 15.6036 4.08585 15.6592 4.01485C15.7148 3.94384 15.7536 3.86122 15.7729 3.77312C15.7921 3.68502 15.7913 3.59372 15.7704 3.506C15.7495 3.41828 15.7091 3.3364 15.6521 3.26645L13.2236 0.230739C13.1651 0.162213 13.0926 0.107183 13.0108 0.0694468C12.929 0.0317107 12.84 0.012168 12.75 0.012168C12.66 0.012168 12.571 0.0317107 12.4892 0.0694468C12.4074 0.107183 12.3349 0.162213 12.2764 0.230739L9.84786 3.26645C9.79094 3.3364 9.75053 3.41828 9.72962 3.506C9.70872 3.59372 9.70786 3.68502 9.72712 3.77312C9.74637 3.86122 9.78524 3.94384 9.84083 4.01485C9.89642 4.08585 9.96731 4.14341 10.0482 4.18323L10.9286 4.62645V7.28573C10.9286 7.44675 10.9925 7.60118 11.1064 7.71504C11.2203 7.8289 11.3747 7.89287 11.5357 7.89287C11.6967 7.89287 11.8512 7.8289 11.965 7.71504C12.0789 7.60118 12.1429 7.44675 12.1429 7.28573V4.25002C12.1441 4.13756 12.1134 4.02705 12.0543 3.93138C11.9952 3.8357 11.9101 3.75881 11.8089 3.70966L11.2625 3.43645L12.75 1.57859L14.2375 3.43645L13.6911 3.70966C13.5899 3.75881 13.5048 3.8357 13.4457 3.93138C13.3866 4.02705 13.3559 4.13756 13.3571 4.25002V8.50001H12.6468C12.4075 8.49875 12.1703 8.54536 11.9492 8.63712C11.7282 8.72887 11.5277 8.86392 11.3596 9.0343L10.8557 9.53823C10.7393 9.64912 10.5854 9.712 10.4246 9.7143H6.57536C6.49541 9.71509 6.4161 9.69993 6.34208 9.6697C6.26806 9.63947 6.20082 9.59477 6.14429 9.53823L5.64036 9.0343C5.47227 8.86392 5.27181 8.72887 5.05076 8.63712C4.82971 8.54536 4.59255 8.49875 4.35321 8.50001H2.42857V6.07144C2.42857 5.91042 2.49254 5.75599 2.6064 5.64213C2.72026 5.52827 2.87469 5.4643 3.03571 5.4643H6.07143C6.23245 5.4643 6.38688 5.40034 6.50074 5.28647C6.6146 5.17261 6.67857 5.01818 6.67857 4.85716V1.82145C6.67857 1.66043 6.74254 1.506 6.8564 1.39214C6.97026 1.27828 7.12469 1.21431 7.28571 1.21431H10.3214C10.4825 1.21431 10.6369 1.15034 10.7507 1.03648C10.8646 0.92262 10.9286 0.768191 10.9286 0.607167C10.9286 0.446143 10.8646 0.291714 10.7507 0.177853C10.6369 0.0639917 10.4825 2.51224e-05 10.3214 2.51224e-05H6.57536C6.33602 -0.00124117 6.09886 0.0453752 5.87781 0.137131C5.65676 0.228887 5.4563 0.363929 5.28821 0.53431L1.74857 4.07395C1.57819 4.24203 1.44315 4.44249 1.35139 4.66354C1.25964 4.88459 1.21302 5.12176 1.21429 5.36109V8.6093C0.860477 8.73532 0.554088 8.96729 0.336815 9.27365C0.119541 9.58 0.00193451 9.94586 0 10.3214V15.1786C0.00144141 15.6612 0.193804 16.1237 0.535076 16.4649C0.876349 16.8062 1.3388 16.9986 1.82143 17H15.1786C15.6612 16.9986 16.1237 16.8062 16.4649 16.4649C16.8062 16.1237 16.9986 15.6612 17 15.1786V10.3214C16.9986 9.83881 16.8062 9.37636 16.4649 9.03509C16.1237 8.69382 15.6612 8.50145 15.1786 8.50001ZM10.9286 13.9643H6.07143C5.9104 13.9643 5.75598 13.9003 5.64211 13.7865C5.52825 13.6726 5.46429 13.5182 5.46429 13.3571C5.46429 13.1961 5.52825 13.0417 5.64211 12.9278C5.75598 12.814 5.9104 12.75 6.07143 12.75H10.9286C11.0896 12.75 11.244 12.814 11.3579 12.9278C11.4717 13.0417 11.5357 13.1961 11.5357 13.3571C11.5357 13.5182 11.4717 13.6726 11.3579 13.7865C11.244 13.9003 11.0896 13.9643 10.9286 13.9643Z" fill="black"/>
</svg>
