<svg width="36" height="36" viewBox="0 0 36 36" fill="none" xmlns="http://www.w3.org/2000/svg">
<circle cx="18" cy="18" r="18" fill="#FFD7D7"/>
<path fill-rule="evenodd" clip-rule="evenodd" d="M25.0279 13.7091V25.4817C25.0279 26.2621 24.3932 26.8946 23.6106 26.8946H12.7447C11.9618 26.8946 11.3274 26.2621 11.3274 25.4817V10.4128C11.3274 9.63246 11.9618 9 12.7447 9H20.3035L25.0279 13.7091Z" fill="#CB0606"/>
<path fill-rule="evenodd" clip-rule="evenodd" d="M25.0278 13.4454V14.0314H21.1657C20.366 14.0314 19.9972 13.3828 19.9972 12.5828V9H20.5822L25.0278 13.4454Z" fill="#FB8D8D"/>
<path fill-rule="evenodd" clip-rule="evenodd" d="M21.8419 18.5199C21.72 18.4796 21.6026 18.4592 21.4894 18.4592C21.3607 18.4592 21.2724 18.4858 21.224 18.5389C21.1759 18.592 21.1519 18.686 21.1519 18.821V19.0791H21.6923V19.5975H21.1519V21.7322H20.497V19.5975H20.1596V19.0791H20.497V18.821C20.497 18.4922 20.5787 18.2545 20.742 18.1077C20.9053 17.961 21.1508 17.8877 21.479 17.8877C21.6331 17.8877 21.7964 17.9087 21.9689 17.9509L21.8419 18.5199ZM19.099 21.4742C18.9771 21.577 18.8485 21.659 18.7132 21.7196C18.5779 21.7803 18.4241 21.8105 18.2516 21.8105C17.9166 21.8105 17.6602 21.69 17.4827 21.449C17.3048 21.2077 17.2162 20.8671 17.2162 20.427C17.2162 19.9769 17.3138 19.6271 17.5092 19.3774C17.7047 19.128 17.9789 19.003 18.3326 19.003C18.4579 19.003 18.5862 19.0288 18.7182 19.0802C18.8502 19.1316 18.9595 19.1971 19.0456 19.2762V17.966H19.7005V21.7322H19.099V21.4742ZM19.0456 19.815C18.9763 19.7526 18.8905 19.6973 18.7881 19.6492C18.6858 19.6014 18.5812 19.5773 18.4747 19.5773C18.2988 19.5773 18.1576 19.6528 18.0511 19.8035C17.9443 19.9545 17.8912 20.1589 17.8912 20.417C17.8912 20.6717 17.9348 20.8713 18.0217 21.0164C18.109 21.1616 18.2437 21.234 18.4266 21.234C18.5348 21.234 18.6452 21.2091 18.7576 21.1593C18.87 21.1096 18.9662 21.0483 19.0456 20.9759V19.815ZM16.2468 21.6386C16.086 21.7532 15.8942 21.8105 15.6708 21.8105C15.3764 21.8105 15.1253 21.7188 14.9173 21.5348V22.7312H14.2625V19.0791H14.8664V19.3394C14.9883 19.2348 15.1164 19.1526 15.2509 19.0928C15.3854 19.0329 15.5397 19.003 15.7139 19.003C16.0505 19.003 16.3069 19.121 16.4828 19.3573C16.6587 19.5933 16.7467 19.9363 16.7467 20.3865C16.7467 20.6717 16.7037 20.9228 16.6173 21.1403C16.5309 21.3578 16.4076 21.5239 16.2468 21.6386ZM15.9373 19.7935C15.8475 19.6492 15.7139 19.5773 15.5363 19.5773C15.4298 19.5773 15.3202 19.6022 15.2078 19.6517C15.0951 19.7015 14.9984 19.7627 14.9173 19.8351V20.996C14.9866 21.0587 15.0725 21.1137 15.1748 21.1618C15.2772 21.2099 15.3823 21.234 15.4908 21.234C15.67 21.234 15.8118 21.1576 15.9158 21.005C16.0198 20.8523 16.0718 20.6496 16.0718 20.3968C16.0718 20.1388 16.0268 19.9377 15.9373 19.7935Z" fill="white"/>
</svg>
