<svg width="36" height="36" viewBox="0 0 36 36" fill="none" xmlns="http://www.w3.org/2000/svg">
<circle cx="18" cy="18" r="18" fill="#C5E2D4"/>
<g clip-path="url(#clip0_1940_347)">
<path d="M27.4091 10.8635H18V24.7726H27.4091V10.8635Z" fill="white"/>
<path d="M27.4091 25.1819H19.2272C19.0011 25.1819 18.8181 24.9989 18.8181 24.7728C18.8181 24.5467 19.0011 24.3637 19.2272 24.3637H27V11.2728H19.2272C19.0011 11.2728 18.8181 11.0898 18.8181 10.8637C18.8181 10.6376 19.0011 10.4546 19.2272 10.4546H27.4091C27.6352 10.4546 27.8181 10.6376 27.8181 10.8637V24.7728C27.8181 24.9989 27.6352 25.1819 27.4091 25.1819Z" fill="#177848"/>
<path d="M19.6363 8L8.18179 10.1344V25.502L19.6363 27.6364V8Z" fill="#177848"/>
<path opacity="0.2" d="M8.18179 10.1344V10.3389L19.6363 8.20455V8L8.18179 10.1344Z" fill="white"/>
<path d="M22.0909 12.0908H18.8181V13.7272H22.0909V12.0908Z" fill="#177848"/>
<path d="M26.1818 12.0908H22.9091V13.7272H26.1818V12.0908Z" fill="#177848"/>
<path d="M22.0909 14.5454H18.8181V16.1818H22.0909V14.5454Z" fill="#177848"/>
<path d="M26.1818 14.5454H22.9091V16.1818H26.1818V14.5454Z" fill="#177848"/>
<path d="M22.0909 17H18.8181V18.6364H22.0909V17Z" fill="#177848"/>
<path d="M26.1818 17H22.9091V18.6364H26.1818V17Z" fill="#177848"/>
<path d="M22.0909 19.4546H18.8181V21.091H22.0909V19.4546Z" fill="#177848"/>
<path d="M26.1818 19.4546H22.9091V21.091H26.1818V19.4546Z" fill="#177848"/>
<path d="M22.0909 21.9092H18.8181V23.5455H22.0909V21.9092Z" fill="#177848"/>
<path d="M26.1818 21.9092H22.9091V23.5455H26.1818V21.9092Z" fill="#177848"/>
<path opacity="0.1" d="M8.18179 25.5019L19.6363 27.6363V27.4318L8.18179 25.2974V25.5019Z" fill="black"/>
<path d="M27.4091 25.1819C27.6352 25.1819 27.8181 24.9989 27.8181 24.7728V18.6364L19.6363 10.4546V25.1819H27.4091Z" fill="url(#paint0_linear_1940_347)"/>
<path d="M14.2017 18.2273L16.0816 14.8435L16.0578 14.8303L14.6288 14.9324L13.5 16.9642L12.4573 15.0875L11.1075 15.1839L12.7982 18.2273L11.1075 21.2707L12.4573 21.3671L13.5 19.4904L14.6288 21.5222L16.0578 21.6243L16.0816 21.6111L14.2017 18.2273Z" fill="white"/>
<path opacity="0.05" d="M19.6363 8L8.18179 10.1344V25.502L19.6363 27.6364V8Z" fill="url(#paint1_linear_1940_347)"/>
<path d="M27.4091 10.4545H19.6363V8L8.18179 10.1344V25.502L19.6363 27.6364V25.1818H27.4091C27.6352 25.1818 27.8181 24.9988 27.8181 24.7727V10.8636C27.8181 10.6375 27.6352 10.4545 27.4091 10.4545Z" fill="url(#paint2_linear_1940_347)"/>
</g>
<defs>
<linearGradient id="paint0_linear_1940_347" x1="15.9545" y1="14.1364" x2="27.2893" y2="25.4712" gradientUnits="userSpaceOnUse">
<stop stop-opacity="0.1"/>
<stop offset="1" stop-opacity="0"/>
</linearGradient>
<linearGradient id="paint1_linear_1940_347" x1="8.18112" y1="17.8177" x2="19.6364" y2="17.8177" gradientUnits="userSpaceOnUse">
<stop stop-color="white"/>
<stop offset="1"/>
</linearGradient>
<linearGradient id="paint2_linear_1940_347" x1="6.9026" y1="12.8776" x2="28.6735" y2="23.0295" gradientUnits="userSpaceOnUse">
<stop stop-color="white" stop-opacity="0.2"/>
<stop offset="1" stop-color="white" stop-opacity="0"/>
</linearGradient>
<clipPath id="clip0_1940_347">
<rect width="19.6364" height="19.6364" fill="white" transform="translate(8.18179 8)"/>
</clipPath>
</defs>
</svg>
