<svg width="36" height="36" viewBox="0 0 36 36" fill="none" xmlns="http://www.w3.org/2000/svg">
<circle cx="18" cy="18" r="18" fill="#D9D9D9"/>
<path d="M12.9315 12.1558C13.4827 12.6106 13.6895 12.5759 14.7245 12.5058L24.4824 11.9106C24.6892 11.9106 24.5171 11.7009 24.4482 11.6661L22.8276 10.4761C22.5171 10.2313 22.1033 9.95086 21.3105 10.021L11.862 10.721C11.5174 10.7557 11.4486 10.9307 11.5858 11.071L12.9315 12.1558ZM13.5173 14.4655V24.8938C13.5173 25.4542 13.7931 25.664 14.4137 25.6293L25.1375 24.999C25.7584 24.9644 25.8276 24.5788 25.8276 24.1236V13.7653C25.8276 13.3107 25.6555 13.0656 25.2754 13.1006L14.0688 13.7653C13.6553 13.8006 13.5173 14.0107 13.5173 14.4655ZM24.1039 15.0249C24.1727 15.3402 24.1039 15.6552 23.7929 15.6906L23.2762 15.7952V23.494C22.8276 23.7389 22.4139 23.8789 22.0692 23.8789C21.5173 23.8789 21.3791 23.7038 20.9656 23.1792L17.5859 17.79V23.0042L18.6553 23.2493C18.6553 23.2493 18.6553 23.8789 17.7925 23.8789L15.4138 24.019C15.3447 23.8789 15.4138 23.5293 15.655 23.4592L16.2758 23.2845V16.3903L15.4139 16.3202C15.3448 16.0049 15.517 15.5504 16 15.5151L18.5519 15.3404L22.0692 20.7997V15.9702L21.1724 15.8656C21.1036 15.4802 21.3791 15.2004 21.7239 15.1657L24.1039 15.0249ZM11.0686 9.77616L20.8967 9.04105C22.1036 8.93591 22.4141 9.00634 23.1727 9.56603L26.3098 11.8056C26.8275 12.1908 27 12.2956 27 12.7155V24.999C27 25.7688 26.7239 26.2241 25.7586 26.2937L14.3454 26.9938C13.6208 27.0289 13.2759 26.924 12.8964 26.4337L10.5861 23.3892C10.1721 22.8288 10 22.4094 10 21.9189V11.0005C10 10.371 10.2762 9.84588 11.0686 9.77616Z" fill="black"/>
</svg>
