<svg width="36" height="36" viewBox="0 0 36 36" fill="none" xmlns="http://www.w3.org/2000/svg">
<circle cx="18" cy="18" r="18" fill="#D9D9D9"/>
<path d="M21.6364 12.5455V23C21.6364 25.0091 20.0091 26.6364 18 26.6364C15.9909 26.6364 14.3636 25.0091 14.3636 23V11.6364C14.3636 10.3818 15.3818 9.36364 16.6364 9.36364C17.8909 9.36364 18.9091 10.3818 18.9091 11.6364V21.1818C18.9091 21.6818 18.5045 22.0909 18 22.0909C17.4955 22.0909 17.0909 21.6818 17.0909 21.1818V12.5455H15.7273V21.1818C15.7273 22.4364 16.7455 23.4545 18 23.4545C19.2545 23.4545 20.2727 22.4364 20.2727 21.1818V11.6364C20.2727 9.62727 18.6455 8 16.6364 8C14.6273 8 13 9.62727 13 11.6364V23C13 25.7636 15.2409 28 18 28C20.7591 28 23 25.7636 23 23V12.5455H21.6364Z" fill="black"/>
</svg>
