<svg width="36" height="36" viewBox="0 0 36 36" fill="none" xmlns="http://www.w3.org/2000/svg">
<circle cx="18" cy="18" r="18" fill="#FFDEDF"/>
<path d="M26.6238 13.9675C26.4168 13.193 25.807 12.5832 25.0325 12.3762C23.6286 12 17.9999 12 17.9999 12C17.9999 12 12.3712 12 10.9673 12.3762C10.193 12.5832 9.58303 13.193 9.37603 13.9675C9 15.3712 9 18.3 9 18.3C9 18.3 9 21.2288 9.37603 22.6324C9.58303 23.4069 10.193 24.0169 10.9673 24.2239C12.3712 24.5999 17.9999 24.5999 17.9999 24.5999C17.9999 24.5999 23.6286 24.5999 25.0325 24.2239C25.807 24.0169 26.4168 23.4069 26.6238 22.6324C27 21.2288 27 18.3 27 18.3C27 18.3 27 15.3712 26.6238 13.9675Z" fill="#ED1F24"/>
<path d="M16.1997 20.9999L20.8761 18.2999L16.1997 15.5999V20.9999Z" fill="white"/>
</svg>
