<svg width="36" height="36" viewBox="0 0 36 36" fill="none" xmlns="http://www.w3.org/2000/svg">
<circle cx="18" cy="18" r="18" fill="#DFF6FF"/>
<path fill-rule="evenodd" clip-rule="evenodd" d="M26.9233 12.791C27.0578 12.0631 27.0544 11.3133 26.5898 10.7478C25.94 9.95403 24.5579 9.92457 23.6106 10.0649C22.8394 10.1784 20.2343 11.2898 19.3477 13.9489C20.9183 13.8332 21.7424 14.0582 21.5911 15.7292C21.527 16.4292 21.1613 17.1951 20.7541 17.9294C20.2827 18.7756 19.3989 20.4386 18.2401 19.24C17.1966 18.1613 17.2748 16.0988 17.0357 14.725C16.903 13.9543 16.7629 12.994 16.5013 12.2013C16.2763 11.5195 15.7599 10.6974 15.1288 10.5196C14.4504 10.3268 13.6116 10.6278 13.1188 10.9079C11.5511 11.7991 10.3568 13.0658 9 14.1107V14.2087C9.26945 14.4567 9.34033 14.8642 9.73748 14.9194C10.6707 15.0522 11.5606 14.0791 12.1822 15.0913C12.5591 15.7105 12.6767 16.3896 12.9191 17.0564C13.242 17.9449 13.4924 18.9132 13.7568 19.9351C14.2028 21.6656 14.753 24.253 16.3011 24.8861C17.0914 25.2095 18.2789 24.7763 18.8797 24.4319C20.5088 23.5005 21.7773 22.1503 22.8636 20.7771C25.3471 17.5266 26.7175 13.844 26.9233 12.791Z" fill="#00ADEF"/>
</svg>
