<svg id="ae5873e2-0d05-4582-a073-404ef6b96a60" data-name="Layer 1" xmlns="http://www.w3.org/2000/svg" viewBox="0 0 543 348">
  <g>
    <path d="M459.2137,83.1689c-27.47,31.7117-33.9336,83.42-32.7216,101.1947-19.3906,0-38.5792-25.0463-38.5792-25.0463a77.9838,77.9838,0,0,1,5.5294-30.626s.9846,10.983,6.211,15.2247c-2.6511-9.3923-3.257-17.0426-1.6664-23.7081a29.0787,29.0787,0,0,1,9.1-15.0573s-3.6467,12.3305,3.3975,26.419c-.8332-14.77.8142-23.0666,5.7566-30.1463a33.4866,33.4866,0,0,1,16.3432-13.005s-8.4153,13.3333-10.0312,34.0367c4.3737-15.6148,11.5832-26.1271,20.4258-33.378C446.7663,85.9715,454.6438,83.1689,459.2137,83.1689Z" style="fill: #41063e"/>
    <path d="M301.5108,205.7966c41.15,25.3669,69.2558,28.385,82.5574,26.0209,37.3776-6.6432,42.7111-53.4319,69.079-61.1486-5.8226-6.9-5.5546-22.2184-17.8757-23.1778-17.7522-1.3824-17.0173,23.1778-43.9873,30.6475C368.8314,194.6311,343.2671,210.157,301.5108,205.7966Z" style="fill: #deade0"/>
    <path d="M331.2732,205.4054c-13.2566,1.1071-25.0634,3.42-51.9779-5.5686,0,3.6473,15.0983,17.7242,45.0932,18.4816-7.5815,2.6448-25.7532.404-25.7532.404,15.3762,10.7305,45.371,17.1221,67.8671,6.0887,0,0-19.3976,1-23.9422-6.5747C345.085,205.8143,331.2732,205.4054,331.2732,205.4054Z" style="fill: #802081"/>
    <rect x="261.5356" y="224.8111" width="130.9847" height="68.1369" style="fill: #fdcf60"/>
    <polygon points="392.52 292.948 261.536 292.948 261.536 241.063 328.626 271.738 392.52 241.063 392.52 292.948" style="fill: #e5bc0e"/>
    <polygon points="392.52 292.948 392.52 241.063 284.446 292.948 392.52 292.948" style="fill: #fdcf60"/>
    <path d="M373.7725,234.9612a1.818,1.818,0,0,1-1.76-1.37l-2.1211-8.3319a1.8177,1.8177,0,1,1,3.5231-.8969l2.1211,8.3318a1.8184,1.8184,0,0,1-1.7632,2.2667Z" style="fill: #fa6142"/>
    <path d="M370.1366,234.9612a1.818,1.818,0,0,1-1.76-1.37l-2.1211-8.3319a1.8177,1.8177,0,1,1,3.5231-.8969l2.121,8.3318a1.8183,1.8183,0,0,1-1.7631,2.2667Z" style="fill: #fa6142"/>
    <path d="M366.5007,234.9612a1.8182,1.8182,0,0,1-1.76-1.37l-2.12-8.3319a1.8177,1.8177,0,1,1,3.5231-.8969l2.12,8.3318a1.8187,1.8187,0,0,1-1.7631,2.2667Z" style="fill: #fa6142"/>
    <path d="M387.0686,240.4044a1.818,1.818,0,0,1-1.2857-3.1034l5.8919-5.8916a1.818,1.818,0,1,1,2.5712,2.5708l-5.8918,5.8916A1.8144,1.8144,0,0,1,387.0686,240.4044Z" style="fill: #fa6142"/>
    <path d="M386.6286,236.5812a1.818,1.818,0,0,1-1.2857-3.1033l5.8919-5.8916a1.818,1.818,0,0,1,2.5713,2.5708l-5.8919,5.8915A1.814,1.814,0,0,1,386.6286,236.5812Z" style="fill: #fa6142"/>
    <path d="M386.6286,232.5207a1.818,1.818,0,0,1-1.2857-3.1034l5.8919-5.8915a1.818,1.818,0,0,1,2.5713,2.5708l-5.8919,5.8915A1.814,1.814,0,0,1,386.6286,232.5207Z" style="fill: #fa6142"/>
    <path d="M407.7075,183.7576c-7.2715-12.9271-14.745-34.54-18.9867-40.5991s-44.6387-24.0362-55.95-89.6214c-4.5447,1.5306-8.4436,4.6756-10.2255,12.8923-1.3634,6.2867.9594,19.5421,9.468,34.0092-11.8161-7.9531-18.2544-29.7675-18.2544-29.7675-1.8681,2.8191-3.661,4.57-4.3175,11.6646-.6258,6.7637,5.6809,28.6314,16.4366,39.3871-6.7413-4.7719-19.9208-22.1173-19.9208-22.1173a32.2131,32.2131,0,0,0,.7574,15.0731c.7968,3.147,7.84,17.7621,15.8307,25.7531-6.999-4.5267-15.4267-11.5131-15.4267-11.5131-4.1659,8.2561,1.7447,14.9388,6.7848,19.6832,5.5363,5.2115,9.4409,7.02,12.5048,10.0843a28.83,28.83,0,0,1-8.3319-1.7421c-.4986,1.0593-.3534,9.0894,10.9578,13.4826a35.5655,35.5655,0,0,1-6.2111-.404c-2.6258,7.1452,12.1822,13.8581,21.9912,13.1291-.6172.8349-3.56,2.3859-3.56,2.3859-.1113,5.7008,15.297,11.551,26.3591,10.6421Z" style="fill: #deade0"/>
    <path d="M351.6566,182.1417a10.3066,10.3066,0,0,0-8.9885-10.3013c3.257-3.257,1.5654-9.2913-3.6357-12.1191,6.3626-2.3228,4.3427-8.4834.707-10.2,5.6051-3.6358,7.3724-9.6448,0-16.26,5.8323,0,10.4022-3.9387,6.06-12.0182,9.0389-.6564,6.9685-12.3211,6.5343-15.1295l-.0024-.0074c-8.2049-12.7849-15.6344-29.8078-19.56-52.5691-4.5447,1.5306-8.4436,4.6756-10.2255,12.8923-1.3634,6.2867.9593,19.5421,9.468,34.0092-11.8161-7.9531-18.2544-29.7675-18.2544-29.7675-1.8682,2.8191-3.661,4.57-4.3175,11.6646-.6257,6.7637,5.6809,28.6314,16.4366,39.3871-6.7413-4.7719-19.9208-22.1173-19.9208-22.1173a32.2131,32.2131,0,0,0,.7574,15.0731c.7968,3.147,7.84,17.7621,15.8307,25.7531-6.999-4.5267-15.4266-11.5131-15.4266-11.5131-4.1659,8.2561,1.7446,14.9388,6.7847,19.6832,5.5363,5.2114,9.4409,7.02,12.5048,10.0843a28.8306,28.8306,0,0,1-8.3319-1.7421c-.4985,1.0593-.3534,9.0894,10.9577,13.4826a35.5658,35.5658,0,0,1-6.211-.404c-2.6258,7.1452,12.1822,13.8581,21.9912,13.1291-.6171.8348-3.56,2.3859-3.56,2.3859-.1113,5.7008,15.297,11.551,26.3591,10.6421C367.6133,196.18,359.2814,180.3743,351.6566,182.1417Z" style="fill: #802081"/>
    <path d="M351.9273,294.4629H84.9467a1.569,1.569,0,0,1,0-3.03H351.9273a1.569,1.569,0,0,1,0,3.03Z" style="fill: #e5bc0e"/>
    <path d="M369.268,263.8448H227.7139a1.569,1.569,0,0,1,0-3.03H369.268a1.569,1.569,0,0,1,0,3.03Z" style="fill: #e5bc0e"/>
    <polygon points="447.34 173.131 442.442 168.636 449.848 164.799 455.722 169.937 447.34 173.131" style="fill: #fa6142"/>
    <polygon points="442.442 168.636 448.067 160.263 449.848 164.799 442.442 168.636" style="fill: #fff"/>
  </g>
</svg>
