<svg id="a5798ef9-4903-4abd-95b4-ffc56c92774a" data-name="Layer 1" xmlns="http://www.w3.org/2000/svg" viewBox="0 0 543 348">
  <g>
    <rect x="190.3333" y="38.8506" width="133.5697" height="88.5026" rx="19.4737" style="fill: #fdcf60"/>
    <path d="M261.718,119.2149s8.3333,32.3313,32.5546,33.0366c0,0-6.8933-22.2961-2.7377-37.1251Z" style="fill: #fdcf60"/>
    <g>
      <rect x="228.0698" y="62.7296" width="49.9255" height="47.5384" rx="4.8115" style="fill: #ffd88a"/>
      <path d="M239.49,80.0972l19.6882,16.5109a.3137.3137,0,0,0,.4746-.0859l26.4692-46.7938a.3137.3137,0,0,0-.5177-.3508L257.5158,84.3718a.3136.3136,0,0,1-.33.1055L239.7771,79.555A.3137.3137,0,0,0,239.49,80.0972Z" style="fill: #fff"/>
    </g>
    <rect x="246.7042" y="173.2186" width="95.3387" height="128.8844" rx="5.6317" transform="translate(-40.5567 61.7057) rotate(-11.2004)" style="fill: #4f368b"/>
    <rect x="255.5545" y="179.1723" width="77.0345" height="113.9295" rx="3.7491" transform="translate(-40.2664 61.6181) rotate(-11.2004)" style="fill: #e4cfe5"/>
    <rect x="266.295" y="171.1237" width="32.3323" height="12.755" rx="3.2077" transform="translate(-29.0981 58.2461) rotate(-11.2004)" style="fill: #802081"/>
    <circle cx="281.5681" cy="172.991" r="8.7999" style="fill: #802081"/>
    <path d="M256.6719,202.973a.9623.9623,0,0,1-.1861-1.9063L315.4571,189.39a.9623.9623,0,1,1,.374,1.8879L256.86,202.9547A.9487.9487,0,0,1,256.6719,202.973Z" style="fill: #fff"/>
    <path d="M258.4048,211.7258a.9623.9623,0,0,1-.1861-1.9063L317.19,198.1427a.9623.9623,0,1,1,.374,1.888l-58.9713,11.6768A.9494.9494,0,0,1,258.4048,211.7258Z" style="fill: #fff"/>
    <path d="M260.09,220.2375a.9623.9623,0,0,1-.1861-1.9062l58.9713-11.6768a.9623.9623,0,1,1,.374,1.8879l-58.9713,11.6768A.9487.9487,0,0,1,260.09,220.2375Z" style="fill: #fff"/>
    <path d="M261.7324,228.5308a.9623.9623,0,0,1-.1861-1.9063l58.9713-11.6773a.9623.9623,0,0,1,.374,1.888L261.92,228.5124A.9489.9489,0,0,1,261.7324,228.5308Z" style="fill: #fff"/>
    <path d="M263.3746,236.8235a.9623.9623,0,0,1-.1861-1.9062L322.16,223.24a.9623.9623,0,1,1,.374,1.888l-58.9713,11.6772A.9487.9487,0,0,1,263.3746,236.8235Z" style="fill: #fff"/>
    <path d="M265.0163,245.1163a.9623.9623,0,0,1-.186-1.9063l58.9717-11.6772a.9623.9623,0,1,1,.374,1.8879L265.2043,245.098A.95.95,0,0,1,265.0163,245.1163Z" style="fill: #fff"/>
  </g>
</svg>
