<svg width="543" height="348" viewBox="0 0 543 348" fill="none" xmlns="http://www.w3.org/2000/svg">
<path d="M389.551 24.6392H111.027V219.939H389.551V24.6392Z" fill="#F0EFFF"/>
<path d="M389.551 24.6392H111.027V44.1692H389.551V24.6392Z" fill="#BAD0F7"/>
<path d="M123.31 38.0207C125.105 38.0207 126.561 36.5634 126.561 34.7657C126.561 32.9681 125.105 31.5107 123.31 31.5107C121.514 31.5107 120.058 32.9681 120.058 34.7657C120.058 36.5634 121.514 38.0207 123.31 38.0207Z" fill="white"/>
<path d="M135.953 38.0207C137.749 38.0207 139.205 36.5634 139.205 34.7657C139.205 32.9681 137.749 31.5107 135.953 31.5107C134.158 31.5107 132.702 32.9681 132.702 34.7657C132.702 36.5634 134.158 38.0207 135.953 38.0207Z" fill="white"/>
<path d="M148.597 38.0207C150.393 38.0207 151.848 36.5634 151.848 34.7657C151.848 32.9681 150.393 31.5107 148.597 31.5107C146.802 31.5107 145.346 32.9681 145.346 34.7657C145.346 36.5634 146.802 38.0207 148.597 38.0207Z" fill="white"/>
<path d="M166.226 88.6906C176.341 88.6906 184.541 80.4811 184.541 70.3541C184.541 60.2271 176.341 52.0176 166.226 52.0176C156.111 52.0176 147.911 60.2271 147.911 70.3541C147.911 80.4811 156.111 88.6906 166.226 88.6906Z" fill="#3D99F5"/>
<path d="M163.914 77.5876L156.328 69.9926C155.714 69.3777 155.714 68.3289 156.328 67.714C156.942 67.0992 157.99 67.0992 158.604 67.714L163.95 73.0667L173.885 63.5187C174.535 62.9039 175.546 62.9039 176.16 63.5549C176.775 64.2059 176.775 65.2186 176.124 65.8334L163.914 77.5876Z" fill="white"/>
<path d="M317.482 0.0458984H253.36V88.2202H317.482V0.0458984Z" fill="#BAD0F7"/>
<path d="M309.967 50.4263H259.609V54.6939H309.967V50.4263Z" fill="white"/>
<path d="M309.967 59.2505H259.609V63.5182H309.967V59.2505Z" fill="white"/>
<path d="M282.982 68.0752H259.609V72.3429H282.982V68.0752Z" fill="white"/>
<path d="M310.871 33.5723H287.498V37.8399H310.871V33.5723Z" fill="white"/>
<path d="M317.482 0.0458984H253.36V7.89405H317.482V0.0458984Z" fill="#3D99F5"/>
<path d="M361.337 57.623H297.215V145.797H361.337V57.623Z" fill="#D6E3F8"/>
<path d="M361.337 57.623H297.215V65.4712H361.337V57.623Z" fill="#3D99F5"/>
<path d="M283.018 16.9355H259.609V44.0967H283.018V16.9355Z" fill="#3D99F5"/>
<path d="M310.871 24.7476H287.498V29.0152H310.871V24.7476Z" fill="#3D99F5"/>
<path d="M354.365 90.9688H304.296V95.3449H354.365V90.9688Z" fill="#3D99F5"/>
<path d="M354.365 99.5405H304.296V103.917H354.365V99.5405Z" fill="white"/>
<path d="M354.365 108.076H304.296V112.452H354.365V108.076Z" fill="white"/>
<path d="M354.365 116.647H304.296V121.024H354.365V116.647Z" fill="white"/>
<path d="M327.091 125.183H304.296V129.559H327.091V125.183Z" fill="white"/>
<path d="M273.951 130.825H163.047V205.4H273.951V130.825Z" fill="#D6E3F8"/>
<path d="M273.951 130.825H163.047V140.047H273.951V130.825Z" fill="#3D99F5"/>
<path d="M189.635 148.799H170.633V197.009H189.635V148.799Z" fill="#3D99F5"/>
<path d="M237.934 148.763H195.018V152.452H237.934V148.763Z" fill="#3D99F5"/>
<path d="M237.934 171.078H195.018V174.767H237.934V171.078Z" fill="white"/>
<path d="M237.934 178.926H195.018V182.615H237.934V178.926Z" fill="white"/>
<path d="M237.934 186.015H195.018V197.082H237.934V186.015Z" fill="white"/>
<path d="M218.463 156.142H195.018V159.831H218.463V156.142Z" fill="#3D99F5"/>
<path d="M261.849 148.763H242.956V159.83H261.849V148.763Z" fill="#3D99F5"/>
<path d="M261.849 163.411H242.956V167.209H261.849V163.411Z" fill="white"/>
<path d="M261.849 170.789H242.956V174.587H261.849V170.789Z" fill="white"/>
<path d="M193.934 122.47C193.898 122.325 193.32 119.215 193.103 114.043L194.909 113.971C195.126 118.962 195.704 122.072 195.704 122.108L193.934 122.47ZM194.945 105.725L193.139 105.616C193.284 102.795 193.573 100.011 194.006 97.2618L195.776 97.515C195.379 100.228 195.09 102.976 194.945 105.725ZM197.438 89.486L195.704 89.052C196.39 86.3033 197.257 83.627 198.233 81.023L199.931 81.674C198.955 84.1695 198.124 86.8097 197.438 89.486ZM203.218 74.1514L201.629 73.3195C202.929 70.824 204.374 68.4008 205.927 66.0862L207.409 67.0989C205.891 69.3412 204.482 71.7282 203.218 74.1514ZM212.43 60.625L211.057 59.4315C212.9 57.3338 214.85 55.3085 216.946 53.4278L218.138 54.766C216.151 56.6105 214.2 58.5635 212.43 60.625ZM224.568 49.6303L223.52 48.1475C225.76 46.5562 228.108 45.001 230.565 43.5905L231.468 45.1457C229.047 46.5562 226.735 48.0752 224.568 49.6303ZM238.765 41.4205L238.006 39.793C240.499 38.6719 243.1 37.5869 245.773 36.6104L246.387 38.3102C243.786 39.2505 241.222 40.2994 238.765 41.4205Z" fill="black"/>
<path d="M279.911 187.027V185.219C279.948 185.219 283.199 185.219 288.039 184.315L288.365 186.087C283.343 187.027 280.056 187.027 279.911 187.027ZM296.529 184.026L295.987 182.29C298.624 181.422 301.189 180.409 303.573 179.215L304.368 180.843C301.875 182.073 299.238 183.158 296.529 184.026ZM311.629 176.575L310.581 175.093C312.821 173.501 314.916 171.765 316.831 169.848L318.095 171.114C316.145 173.103 313.941 174.948 311.629 176.575ZM323.55 164.677L322.069 163.628C323.623 161.422 324.995 159.071 326.151 156.575L327.777 157.371C326.585 159.939 325.14 162.398 323.55 164.677Z" fill="black"/>
<path d="M419.101 311.803L418.162 329.054L417.837 335.058H404.579V311.803H419.101Z" fill="#A55C5C"/>
<path d="M404.398 331.116L388.034 342.255C386.697 343.159 387.347 345.221 388.937 345.221H416.753C418.307 345.221 419.499 343.883 419.318 342.327L418.09 331.08C418.09 331.116 410.215 336.939 404.398 331.116Z" fill="black"/>
<path d="M476.901 335.058H462.776L461.115 326.957L457.972 311.803H473.758L475.817 326.993L476.901 335.058Z" fill="#A55C5C"/>
<path d="M419.101 311.803L418.162 329.054L404.579 327.029V311.803H419.101Z" fill="black"/>
<path d="M461.259 330.899C461.259 330.899 469.965 335.89 476.612 330.501L500.888 342.327C502.297 342.978 501.827 345.04 500.31 345.04H462.379C460.573 345.04 459.2 343.412 459.489 341.64L461.259 330.899Z" fill="black"/>
<path d="M475.817 326.993L461.44 327.644L461.115 326.956L457.972 311.803H473.758L475.817 326.993Z" fill="black"/>
<path d="M421.305 85.9419L420.618 77.2258C420.618 77.2258 406.349 80.9148 413.104 53.9344C413.104 53.9344 422.244 44.3503 433.587 53.9344V73.5368L435.502 83.5549L421.305 85.9419Z" fill="#A55C5C"/>
<path d="M417.512 63.5185C418.018 60.9507 422.208 58.9615 422.822 63.5185C422.822 63.5185 423.256 69.4136 420.185 69.5583C420.185 69.5583 423.545 76.6108 431.492 75.128C433.009 74.8386 444.28 71.9815 439.837 49.8837C438.32 42.2887 422.172 34.4405 410.72 48.9071C409.384 50.5708 408.481 56.7553 414.73 55.1278L415.453 65.0013L417.367 64.4226C417.367 64.4226 417.476 63.7717 417.512 63.5185Z" fill="black"/>
<path d="M389.732 115.526L380.881 117.588L378.93 118.058C376.149 118.709 373.222 117.805 371.308 115.707L343.997 85.8332C343.203 84.9652 342.625 83.9526 342.299 82.8676L341.505 80.2997C340.854 82.2527 339.554 81.2762 339.554 81.2762L336.628 77.6957L336.953 72.8132C336.953 70.8602 338.904 70.8602 338.904 70.8602C339.229 68.9072 341.18 69.5582 341.18 69.5582C340.854 67.6052 342.805 67.9307 342.805 67.9307L340.529 65.9777C335.002 64.6757 335.002 61.0952 335.002 61.0952L340.529 62.3972C340.529 62.3972 349.344 67.6052 349.958 68.9072C350.608 70.2092 349.958 79.6849 349.958 79.6849L378.641 101.204L382.579 99.5404L387.131 97.6236L389.732 115.526Z" fill="#A55C5C"/>
<path d="M399.449 161.422L399.485 228.439L397.318 324.642H420.438L427.482 229.704L429.65 212.706L435.61 238.927L454.034 324.642H476.432L459.814 222.652C459.814 222.652 458.333 193.719 456.888 184.062C455.985 178.167 453.673 160.445 453.673 160.445L399.449 161.422Z" fill="#273237"/>
<path d="M389.731 115.526L380.881 117.624L382.579 99.5042L387.13 97.5874L389.731 115.526Z" fill="black"/>
<path d="M463.427 121.023L453.673 117.768L454.143 126.376L456.78 176.178C456.78 176.178 428.602 180.156 421.016 180.156C408.011 180.156 397.896 174.731 397.896 174.731V174.116L399.341 117.949L385.794 121.747L383.626 98.6001L403.134 89.5585L417.945 84.4951C418.379 82.9761 419.715 81.855 421.305 81.7103L436.586 80.336C437.995 80.1913 439.404 80.8785 440.162 82.1081L441.427 84.1335L456.238 91.9093L474.12 104.568L463.427 121.023Z" fill="#FFAA3F"/>
<g opacity="0.15">
<g opacity="0.15">
<g opacity="0.15">
<g opacity="0.15">
<g opacity="0.15">
<g opacity="0.15">
<g opacity="0.15">
<g opacity="0.15">
<g opacity="0.15">
<g opacity="0.15">
<g opacity="0.15">
<path opacity="0.15" d="M456.743 176.177C456.743 176.177 428.566 180.156 420.98 180.156C407.975 180.156 397.86 174.731 397.86 174.731V174.116C412.96 171.512 441.21 180.156 454.106 126.376L456.743 176.177Z" fill="black"/>
</g>
</g>
</g>
</g>
</g>
</g>
</g>
</g>
</g>
</g>
</g>
<path d="M492.363 129.089L462.704 153.574C462.704 153.574 461.259 155.02 460.537 155.382C460.537 155.382 462.343 159.722 453.131 160.445C453.131 160.445 450.783 159.722 451.867 157.552C451.867 157.552 450.422 156.829 451.144 154.297C451.144 154.297 449.699 153.212 450.783 151.404C450.783 151.404 449.699 149.595 451.144 147.787L455.118 143.447H464.149L476.07 125.364L469.749 121.856L464.691 119.035L473.722 104.568L475.42 105.761L491.965 117.479C495.867 120.264 496.084 126.015 492.363 129.089Z" fill="#A55C5C"/>
<path d="M452.95 155.02L452.047 147.462L453.131 147.317L453.889 153.429C455.732 152.163 455.334 148.944 455.334 148.908L455.262 148.402L459.742 147.57L459.922 148.655L456.418 149.306C456.49 150.572 456.346 153.791 453.6 154.803L452.95 155.02Z" fill="black"/>
<path d="M430.711 196.906L427.689 221.786L428.765 221.917L431.787 197.037L430.711 196.906Z" fill="white"/>
<path d="M399.472 110.322L398.868 127.346L399.951 127.385L400.555 110.36L399.472 110.322Z" fill="black"/>
<path d="M453.141 110.126L452.062 110.222L453.507 126.505L454.587 126.409L453.141 110.126Z" fill="black"/>
<path d="M475.42 105.761L469.748 121.856L464.691 119.035L473.722 104.568L475.42 105.761Z" fill="black"/>
<path d="M61.6082 314.913L57.2732 330.32L55.5392 336.468H42.7148L43.9792 328.982L46.3996 314.696L61.6082 314.913Z" fill="#FFAD94"/>
<path d="M61.6082 314.913L57.2732 330.32L43.9792 328.982L46.3996 314.696L61.6082 314.913Z" fill="black"/>
<path d="M43.6541 332.056C44.7739 333.213 49.3618 337.083 56.9119 331.839C56.9842 331.802 57.0564 331.802 57.1287 331.839L78.0089 343.014C78.9843 343.521 78.6231 345.003 77.5032 345.003H43.4734C41.9201 345.003 40.7279 343.557 41.0892 342.001L43.2928 332.164C43.3289 332.019 43.5457 331.947 43.6541 332.056Z" fill="black"/>
<path d="M94.1206 314.913L91.339 330.03L90.1469 336.468H77.3225L77.8644 328.909L78.912 314.696L94.1206 314.913Z" fill="#FFAD94"/>
<path d="M94.1207 314.913L91.3391 330.03L77.8645 328.909L78.9121 314.696L94.1207 314.913Z" fill="black"/>
<path d="M77.5393 332.056C78.6592 333.213 83.2471 337.083 90.7972 331.839C90.8694 331.802 90.9417 331.802 91.0139 331.839L111.894 343.014C112.87 343.521 112.508 345.003 111.388 345.003H77.3587C75.8053 345.003 74.6132 343.557 74.9744 342.001L77.1781 332.164C77.2142 332.019 77.4309 331.947 77.5393 332.056Z" fill="black"/>
<path d="M87.7627 62.5055C87.7627 62.5055 96.6856 61.0589 96.3604 69.992C96.0353 78.9252 92.7841 88.437 92.7841 88.437C92.7841 88.437 91.5919 93.7535 94.0123 98.8892C94.0123 98.8892 78.9482 96.8277 76.4556 89.7752L77.0697 63.9522L87.7627 62.5055Z" fill="black"/>
<path d="M83.9695 114.441L83.1748 90.1371C83.1748 90.1371 96.9745 93.7899 91.7725 67.3521C91.7725 67.3521 86.5705 62.0718 79.8874 65.3991C73.2404 68.7264 72.9152 75.0194 72.9152 75.0194L65.9792 112.307L83.9695 114.441Z" fill="#FFAD94"/>
<path d="M91.5198 66.4116C91.5198 66.4116 89.0272 69.9559 85.9565 71.8366C83.3555 73.4279 80.2488 73.3556 79.0928 74.0066C79.0928 74.0066 75.9138 86.3394 82.4163 97.5873C82.4163 97.5873 73.1683 97.6958 66.5574 89.0158C66.5574 89.0158 67.7495 91.2581 69.0139 92.9941C69.0139 92.9941 57.8151 93.4643 64.6066 68.2199C69.0139 51.8726 88.4491 59.8293 91.3392 62.5779L91.5198 66.4116Z" fill="black"/>
<path d="M101.887 174.731L105.355 236.106L95.2043 326.233H73.5654L78.0088 238.203L73.8906 174.731H101.887Z" fill="black"/>
<path d="M91.0861 173.32L83.7527 230.753L61.4636 326.233H42.0283L55.2501 227.751C55.2501 227.751 48.7837 192.959 56.1893 176.141L91.0861 173.32Z" fill="#273237"/>
<path d="M104.705 147.425H99.2865L104.705 181.06C104.705 181.06 104.055 182.145 102.393 183.556C99.8645 185.726 94.9515 188.655 86.4621 189.559C86.137 189.595 85.8479 189.632 85.5228 189.668C85.3061 189.668 85.1255 189.704 84.9087 189.704C68.7247 190.97 51.2402 184.677 51.2402 184.677L53.8051 149.197L54.3831 133.935L54.4914 132.633L37.5127 131.186L44.9906 113.754C46.6885 110.101 49.7591 107.244 53.5161 105.797L66.9907 100.625C66.9907 100.625 78.912 113.284 84.3307 101.349L106.909 114.188L104.705 147.425Z" fill="#00CAB4"/>
<g opacity="0.15">
<g opacity="0.15">
<g opacity="0.15">
<g opacity="0.15">
<g opacity="0.15">
<g opacity="0.15">
<g opacity="0.15">
<g opacity="0.15">
<g opacity="0.15">
<g opacity="0.15">
<g opacity="0.15">
<path opacity="0.15" d="M102.393 183.556C99.8645 185.726 94.9515 188.655 86.4621 189.559C86.137 189.595 85.848 189.632 85.5229 189.668C85.3061 189.668 85.1255 189.704 84.9087 189.704C68.7247 190.97 51.2402 184.677 51.2402 184.677L53.8051 149.197L54.3109 132.416C59.26 186.268 85.27 188.221 102.393 183.556Z" fill="black"/>
</g>
</g>
</g>
</g>
</g>
</g>
</g>
</g>
</g>
</g>
</g>
<path d="M75.6248 141.819L84.2948 145.436C84.2948 145.436 85.3785 143.266 81.4048 140.011L75.6248 141.819Z" fill="#DD9976"/>
<path d="M70.0254 150.318V146.34L147.116 149.45L146.972 153.935L92.0616 155.02L70.0254 150.318Z" fill="#3D99F5"/>
<path d="M94.229 144.532L89.1715 143.447L81.6575 142.072C81.3685 142.036 81.1156 142.036 80.8266 142.145L73.4571 145.074L40.7279 156.647C36.6458 158.094 32.6359 154.333 33.7919 150.137L38.7771 132.994L39.319 131.114L54.1303 132.56L52.5046 136.828L50.3371 142.506L71.109 139.432L80.5376 135.96C81.1156 135.743 81.7659 135.671 82.38 135.743C84.1502 135.96 87.8349 136.503 88.9909 137.479L94.9515 142.615C95.674 143.302 94.229 144.532 94.229 144.532Z" fill="#FFAD94"/>
<path d="M99.6479 145.255L70.0254 146.34L93.1454 151.042H101.129L99.6479 145.255Z" fill="#8AA5BC"/>
<path d="M100.623 111.439H147.369C149.464 111.439 151.09 113.247 150.873 115.345L146.971 150.318L93.1453 151.041L97.1551 114.585C97.3358 112.777 98.8169 111.439 100.623 111.439Z" fill="#BAD0F7"/>
<path d="M116.988 154.767C116.988 154.767 119.011 156.322 120.781 154.767C120.781 154.767 122.479 156.322 123.924 154.767C123.924 154.767 125.369 155.997 126.597 154.767C126.597 154.767 128.15 155.997 129.09 154.767L135.592 146.087C135.592 146.087 131.871 145.472 128.765 150.427L128.439 145.147L126.886 140.807C126.886 140.807 125.333 142.977 125.947 145.761V151.042L124.393 145.761L122.226 141.421C122.226 141.421 120.998 143.917 122.226 146.702L122.84 151.367L120.347 147.027L117.566 143.628C117.566 143.628 116.627 146.412 118.18 148.293L119.589 152.344L116.988 154.767Z" fill="#FFAD94"/>
<path d="M59.1241 117.837L51.9004 136.64L52.912 137.03L60.1356 118.226L59.1241 117.837Z" fill="black"/>
<path d="M54.1302 132.597L52.5046 136.864L38.7771 133.031L39.319 131.15L54.1302 132.597Z" fill="black"/>
<path d="M76.1304 265.69L75.0828 265.437L82.0549 235.563L87.1124 200.228L88.16 200.409L83.1386 235.78L76.1304 265.69Z" fill="white"/>
<path d="M128.814 132.481C129.177 130.66 128.251 128.939 126.745 128.637C125.238 128.336 123.722 129.568 123.358 131.389C122.994 133.211 123.921 134.932 125.427 135.234C126.934 135.535 128.45 134.303 128.814 132.481Z" fill="white"/>
<path d="M542.721 344.895H0.484619V347.065H542.721V344.895Z" fill="black"/>
</svg>
