<svg xmlns="http://www.w3.org/2000/svg" xmlns:xlink="http://www.w3.org/1999/xlink" viewBox="0 0 72 72">
  <defs>
    <style>
      .a35d153c-fa9e-4d6d-8bef-c7890d053b87 {
        isolation: isolate;
      }

      .a8b5d0ef-f3c4-4093-97fd-493a87e2b0c4 {
        fill: url(#e4f9852b-58e7-4eb9-a9a0-081f62e3384d);
      }

      .eda20a9e-8db3-4690-ba7e-c5f4e6fd0304 {
        fill: url(#beda4dae-3036-4beb-8697-14fcda689a75);
      }

      .f14f7769-464a-4454-b4e7-ffdc3217a346 {
        fill: url(#b4da7cd4-ea16-418f-8919-e42a859ab472);
      }

      .ab5d9d43-e7f3-4433-afd7-c7962e54d2fb {
        fill: url(#b1afeae6-5301-410c-b16a-6deeae45dcb4);
      }

      .bd266e88-79b8-4733-aa89-7aef90e8dfd5 {
        fill: url(#aa5b2e6e-9198-4a51-83bf-a294e5d6ebb3);
      }

      .e58177d4-038b-411d-8a67-b50e55efd810 {
        fill: url(#a482d616-42c2-411c-984d-7c60f58c1554);
      }

      .b2180d92-31d0-4ca9-b40e-337e3a6d74a1 {
        fill: url(#ab283a49-0209-4aad-b258-92ce20b51185);
      }

      .b3e24f7d-578c-42f7-b2bc-aedbe5241a6b {
        fill: url(#a3b8b916-6191-4fb9-920e-936d03e70642);
      }

      .b14a14f7-4928-40e9-9941-7f1754e8a781, .b56c3dbc-70ae-45b7-92b5-c63b54285fd9, .bf243ccd-9257-4728-aec0-dd7112c663bb {
        mix-blend-mode: multiply;
      }

      .bf243ccd-9257-4728-aec0-dd7112c663bb {
        fill: url(#e05a4b9f-f27d-45ba-af16-9c6c52a2c997);
      }

      .b56c3dbc-70ae-45b7-92b5-c63b54285fd9 {
        fill: url(#beeb7d71-9cb4-49ed-b57c-2a87b35e1285);
      }

      .b14a14f7-4928-40e9-9941-7f1754e8a781 {
        fill: url(#a3524c72-b094-404d-b2fb-0ea8782a6ab0);
      }
    </style>
    <linearGradient id="e4f9852b-58e7-4eb9-a9a0-081f62e3384d" x1="29.4125" y1="59.5612" x2="43.6862" y2="-4.6706" gradientUnits="userSpaceOnUse">
      <stop offset="0" stop-color="#fed061"/>
      <stop offset="0.4944" stop-color="#812082"/>
      <stop offset="1" stop-color="#50368c"/>
    </linearGradient>
    <linearGradient id="beda4dae-3036-4beb-8697-14fcda689a75" x1="31.1427" y1="-9.3097" x2="0.2163" y2="56.1116" xlink:href="#e4f9852b-58e7-4eb9-a9a0-081f62e3384d"/>
    <linearGradient id="b4da7cd4-ea16-418f-8919-e42a859ab472" x1="75.0192" y1="11.4318" x2="44.0927" y2="76.8531" xlink:href="#e4f9852b-58e7-4eb9-a9a0-081f62e3384d"/>
    <linearGradient id="b1afeae6-5301-410c-b16a-6deeae45dcb4" x1="36.1902" y1="24.9215" x2="24.8132" y2="48.9883" xlink:href="#e4f9852b-58e7-4eb9-a9a0-081f62e3384d"/>
    <linearGradient id="aa5b2e6e-9198-4a51-83bf-a294e5d6ebb3" x1="54.7203" y1="1.836" x2="23.7938" y2="67.2573" xlink:href="#e4f9852b-58e7-4eb9-a9a0-081f62e3384d"/>
    <linearGradient id="a482d616-42c2-411c-984d-7c60f58c1554" x1="55.8876" y1="2.3878" x2="24.9612" y2="67.8091" xlink:href="#e4f9852b-58e7-4eb9-a9a0-081f62e3384d"/>
    <linearGradient id="ab283a49-0209-4aad-b258-92ce20b51185" x1="40.9969" y1="-4.6514" x2="10.0705" y2="60.7699" xlink:href="#e4f9852b-58e7-4eb9-a9a0-081f62e3384d"/>
    <linearGradient id="a3b8b916-6191-4fb9-920e-936d03e70642" x1="48.6959" y1="-1.0119" x2="17.7694" y2="64.4094" xlink:href="#e4f9852b-58e7-4eb9-a9a0-081f62e3384d"/>
    <linearGradient id="e05a4b9f-f27d-45ba-af16-9c6c52a2c997" x1="35.8294" y1="44.3645" x2="35.8294" y2="12.5464" gradientUnits="userSpaceOnUse">
      <stop offset="0.4001" stop-color="#944493" stop-opacity="0"/>
      <stop offset="1" stop-color="#301350"/>
    </linearGradient>
    <linearGradient id="beeb7d71-9cb4-49ed-b57c-2a87b35e1285" x1="16.8414" y1="58.7639" x2="30.6899" y2="57.1496" xlink:href="#e05a4b9f-f27d-45ba-af16-9c6c52a2c997"/>
    <linearGradient id="a3524c72-b094-404d-b2fb-0ea8782a6ab0" x1="15.8931" y1="31.593" x2="28.3823" y2="47.9903" xlink:href="#e05a4b9f-f27d-45ba-af16-9c6c52a2c997"/>
  </defs>
  <g class="a35d153c-fa9e-4d6d-8bef-c7890d053b87">
    <g id="af4feede-8ed5-4301-ad43-792ec50ebc7f" data-name="Layer 2">
      <g>
        <path class="a8b5d0ef-f3c4-4093-97fd-493a87e2b0c4" d="M47.7755,32.7581c.0241.0151.0481.029.0732.0424.0241.0151.0481.029.0732.0424.0241.0151.0481.029.0732.0424.0241.0151.0481.029.0732.0424.0242.0151.0481.029.0732.0424.0242.0151.0481.029.0732.0424.0242.0151.0481.0293.0733.0427s.048.0287.0731.0424.0481.029.0733.0424c.0241.0151.0481.029.0732.0424.0241.0151.0481.029.0732.0424.0241.0151.0481.029.0731.0424.0242.0151.0482.029.0733.0424.0241.0151.0481.0293.0732.0426.0242.0149.0481.0291.0732.0424.0241.0151.0481.0291.0732.0424.0241.0151.0481.0291.0732.0424.0242.0151.0481.0291.0732.0424.0242.0151.0481.0291.0733.0424.0241.0151.0481.0291.0732.0424.0241.0151.048.0291.0731.0424.0242.0151.0482.0291.0733.0424.0241.0151.0481.0294.0732.0427.0241.0148.0481.0291.0732.0424.0241.0151.0481.0291.0732.0424.0241.0151.0481.0291.0732.0424.0241.0151.0481.0291.0732.0424.0242.0151.0481.0291.0732.0424.0241.0151.0481.0291.0732.0424.0241.0151.0481.029.0732.0427s.0481.029.0733.0424c.0241.0151.0481.029.0732.0424.0241.0151.048.029.0731.0424.0242.0151.0482.029.0733.0424.0241.0151.0481.029.0732.0424.0241.0151.0481.029.0732.0424.0241.0151.0481.029.0732.0424.0241.0151.048.029.0731.0424.0242.0151.0482.029.0733.0427s.0481.029.0732.0424c.0241.0151.0481.029.0732.0424.0242.0151.0481.029.0732.0424.0241.0151.0481.029.0733.0424.0241.0151.048.029.0731.0424.0242.0151.0481.029.0733.0424.0241.0151.048.029.0731.0424.0241.0151.0481.0293.0733.0427.0242.0151.0481.029.0732.0423.0241.0152.0481.0291.0732.0424.0241.0151.0481.0291.0732.0424a1.2059,1.2059,0,0,0,1.2558.0262l8.2164-4.7437a1.221,1.221,0,0,0,.6107-1.0576V8.2239a5.5218,5.5218,0,0,0-2.7922-4.8052c-.0244-.0142-.0486-.0285-.0732-.0424s-.0485-.0285-.0731-.0424-.0487-.0288-.0733-.0424-.0486-.0288-.0733-.0424-.0485-.0288-.0732-.0427-.0485-.0285-.0732-.0424-.0485-.0285-.073-.0424-.0487-.0284-.0734-.0424-.0486-.0284-.0732-.0424-.0486-.0284-.0732-.0424-.0485-.0284-.0731-.0424-.0486-.0287-.0733-.0424-.0486-.0287-.0732-.0424-.0486-.0287-.0733-.0427-.0484-.0284-.073-.0421-.0487-.0287-.0734-.0427-.0485-.0284-.0732-.0424-.0485-.0287-.0732-.0424-.0486-.0287-.0732-.0424-.0485-.0287-.073-.0424-.0487-.0287-.0734-.0426-.0486-.0285-.0732-.0424-.0486-.0285-.0732-.0424S56.9943,2.4142,56.97,2.4s-.0487-.0285-.0733-.0424-.0486-.0285-.0733-.0424-.0485-.0288-.0732-.0424-.0484-.0288-.073-.0424-.0487-.0288-.0734-.0424S56.555,2.16,56.53,2.1456s-.0486-.0285-.0732-.0424-.0485-.0285-.073-.0424-.0487-.0285-.0734-.0424-.0486-.0288-.0732-.0424-.0486-.0288-.0732-.0424-.0486-.0288-.0733-.0424-.0484-.0288-.073-.0424-.0487-.0288-.0733-.0427-.0486-.0285-.0733-.0424-.0485-.0285-.0732-.0424-.0484-.0285-.073-.0424-.0487-.0285-.0734-.0424-.0486-.0287-.0732-.0424-.0486-.0287-.0732-.0424-.0485-.0287-.0731-.0424-.0486-.0287-.0733-.0427-.0486-.0284-.0732-.0424-.0486-.0284-.0732-.0424-.0486-.0284-.0733-.0424-.0484-.0284-.073-.0424A5.1649,5.1649,0,0,0,52.487.59a5.3058,5.3058,0,0,0-2.6078.663c-.0029.0017-14.0862,8.1329-19.9673,11.5283L15.0578,4.2048a.9381.9381,0,0,0-.9779.0218c-.0212.011-.0414.0226-.0617.0354s-.0415.023-.0619.0357-.0414.023-.0618.0357-.0414.023-.0617.0355-.0416.0229-.0619.0357c-.0212.0113-.0414.0229-.0617.0357s-.0416.023-.062.0357c-.0212.0111-.0414.0227-.0618.0355s-.0414.0229-.0617.0357c-.0213.0113-.0416.0229-.0619.0357-.0212.011-.0415.0229-.0618.0354s-.0415.023-.0618.0357-.0415.023-.0619.0358c-.0212.011-.0414.0226-.0617.0354-.0212.0113-.0416.0229-.0619.0357-.0212.0113-.0415.023-.0619.0357s-.0413.023-.0616.0355-.0416.0229-.0619.0357-.0414.0229-.0617.0357c-.0213.0113-.0416.0229-.062.0357-.0212.0111-.0415.023-.0618.0357-.0212.0111-.0414.0227-.0617.0355s-.0416.0229-.0619.0357c-.0212.0113-.0415.0229-.0618.0357-.0212.011-.0415.0227-.0618.0354s-.0415.023-.0619.0358-.0414.0229-.0617.0357c-.0213.011-.0416.0226-.0619.0354-.0212.0113-.0415.0229-.0618.0357-.0212.0113-.0415.023-.0618.0357-.0212.0111-.0415.0227-.0619.0355-.0212.0113-.0414.0229-.0618.0357s-.0414.0229-.0618.0357c-.0212.011-.0415.023-.0618.0357-.0212.0111-.0414.0227-.0617.0355-.0213.0113-.0416.0229-.0619.0357s-.0414.0229-.0617.0354-.0416.0229-.062.0357-.0415.023-.0618.0357-.0414.023-.0617.0358c-.0213.011-.0416.0226-.0619.0357-.0212.011-.0415.0226-.0618.0354s-.0415.023-.0618.0357-.0416.023-.0619.0358c-.0212.011-.0414.0226-.0617.0354-.0213.0113-.0416.0229-.0619.0357s-.0415.0229-.0618.0357c-.0212.0111-.0415.0227-.0618.0354s-.0415.023-.0618.0358c-.0212.0113-.0415.0229-.0617.0357a.937.937,0,0,0-.5081.836V17.7871a.9493.9493,0,0,0,.4747.8221l14.9093,8.6081a.935.935,0,0,0,.9012.02v3.8759l-11.7086-6.76a.9373.9373,0,0,0-.9807.0235c-.0212.0114-.0413.0236-.0617.0366-.0213.0113-.0414.0235-.0618.0366-.0214.0113-.0415.0235-.0619.0366-.0213.0113-.0414.0235-.0618.0366-.0213.0113-.0414.0235-.0618.0366-.0213.0113-.0414.0235-.0619.0366-.0213.0113-.0413.0235-.0617.0363s-.0414.0238-.0618.0366-.0414.0238-.0619.0366-.0414.0238-.0618.0365-.0414.0239-.0618.0366-.0414.0238-.0618.0366-.0414.0235-.0618.0366c-.0214.0113-.0415.0235-.0619.0366-.0213.0113-.0414.0238-.0618.0366s-.0414.0235-.0618.0366c-.0213.0113-.0414.0235-.0618.0366-.0213.0113-.0414.0235-.0618.0366-.0213.0113-.0414.0235-.0618.0366-.0213.0113-.0414.0235-.0618.0363s-.0415.0238-.0619.0366-.0414.0238-.0618.0365-.0414.0239-.0618.0366-.0414.0236-.0618.0366c-.0213.0113-.0415.0235-.0619.0366-.0213.0113-.0413.0235-.0617.0366-.0214.0113-.0415.0235-.0619.0366-.0213.0113-.0414.0235-.0618.0363s-.0414.0238-.0619.0369c-.0213.0113-.0413.0235-.0617.0363s-.0414.0238-.0619.0366-.0414.0238-.0618.0366-.0413.0238-.0617.0365-.0414.0239-.0618.0366-.0415.0236-.0619.0366c-.0213.0114-.0414.0235-.0619.0366-.0213.0113-.0413.0235-.0617.0366-.0214.0113-.0414.0235-.0618.0366-.0213.0113-.0414.0235-.0618.0366-.0214.0113-.0415.0235-.0619.0366-.0213.0113-.0414.0235-.0618.0366-.0213.0113-.0414.0235-.0618.0363-.0213.0113-.0414.0238-.0618.0366-.0214.0113-.0415.0238-.0619.0365s-.0414.0239-.0618.0366-.0414.0236-.0618.0366c-.0214.0114-.0414.0238-.0619.0366-.0212.0113-.0413.0235-.0617.0366-.0213.0113-.0414.0235-.0618.0366-.0213.0113-.0414.0235-.0618.0363a.938.938,0,0,0-.5052.8352V37.9835a.9494.9494,0,0,0,.4746.8222l15.81,9.1278v.5335l0,.0064V51.35L15.0578,44.59a.9379.9379,0,0,0-.9784.0218c-.0212.0114-.0414.0233-.0617.0357s-.0415.0233-.0619.0361c-.0212.0113-.0414.0229-.0617.0357s-.0415.0229-.0618.0357c-.0213.0113-.0415.0229-.0619.0357-.0212.0113-.0414.0232-.0618.036-.0212.0111-.0415.023-.0618.0357s-.0415.023-.0618.0358c-.0212.0113-.0415.0232-.0618.036-.0213.011-.0415.0229-.0619.0357-.0212.0113-.0414.0229-.0618.0357-.0212.0113-.0415.023-.0618.0357s-.0415.0233-.0618.036c-.0213.0111-.0415.023-.0619.0358-.0212.0113-.0414.0229-.0618.0357-.0212.0113-.0415.0229-.0619.036-.0212.011-.0414.0229-.0616.0357-.0213.011-.0415.0229-.0619.0357s-.0415.023-.0618.0357-.0415.023-.0618.0358c-.0212.0113-.0415.0232-.0618.036-.0213.011-.0415.0229-.0618.0357-.0213.0113-.0415.0229-.0619.0357-.0212.0113-.0414.023-.0618.0357s-.0415.0233-.0618.036c-.0213.0111-.0415.023-.0618.0358-.0213.0113-.0415.0229-.0619.0357-.0212.0113-.0414.0232-.0618.036-.0213.011-.0415.0229-.0619.0357-.0212.0113-.0414.023-.0617.0357s-.0415.023-.0619.0357-.0414.023-.0617.0358-.0415.0232-.0618.036c-.0212.011-.0415.0229-.0618.0357s-.0415.0229-.0618.0357c-.0213.0113-.0415.0232-.0619.036-.0212.0111-.0415.023-.0618.0357s-.0415.023-.0618.0358c-.0213.0113-.0415.0229-.0619.0357s-.0414.0232-.0618.036c-.0212.011-.0414.0229-.0618.0357-.0212.0113-.0414.023-.0618.0357s-.0415.023-.0619.0357-.0414.0233-.0617.0361c-.0213.011-.0415.0229-.0618.0357s-.0415.0229-.0619.0357c-.0212.0113-.0415.0229-.0618.036-.0212.011-.0415.0229-.0618.0357-.0212.0111-.0414.023-.0618.0357s-.0415.023-.0618.0358a.9376.9376,0,0,0-.5075.836V58.18a.95.95,0,0,0,.4747.8221L30.5,70.2859v0l.0042.0026h0l.6862.3964.0007,0A6.8921,6.8921,0,0,0,39.9842,68.37h.0006q.1809-.2683.3377-.5546c.0456-.0837.0859-.1611.1281-.2468.0045.0009.7086.43.7086.43a17.2386,17.2386,0,0,0,7.6683-.2663,16.8572,16.8572,0,0,0,2.0322-.6813A17.0726,17.0726,0,0,0,61.477,52.4048c.0279-.3973.0418-7.36.0418-7.36a1.1983,1.1983,0,0,0-.6383-1.0637c-.02-.0122-.04-.0238-.06-.0349s-.04-.0238-.0606-.0351-.04-.0238-.06-.0349-.04-.0238-.06-.0351-.04-.0238-.06-.0348c-.02-.0125-.04-.0239-.0606-.0352s-.04-.0238-.06-.0348c-.02-.0125-.04-.0238-.06-.0352s-.04-.0238-.06-.0348c-.02-.0125-.04-.0238-.06-.0352s-.04-.0238-.06-.0348c-.02-.0125-.04-.0238-.06-.0351s-.04-.0239-.0605-.0349-.04-.0238-.06-.0351-.04-.0235-.06-.0349-.04-.0238-.06-.0348c-.02-.0125-.04-.0241-.06-.0352s-.04-.0238-.06-.0348c-.02-.0125-.04-.0241-.06-.0351-.02-.0125-.04-.0239-.06-.0349-.02-.0125-.04-.0238-.06-.0351s-.04-.0238-.06-.0349-.04-.0238-.06-.0351-.04-.0238-.06-.0349-.04-.0238-.06-.0351-.04-.0238-.06-.0349-.04-.0238-.0606-.0351-.04-.0238-.06-.0348-.04-.0239-.06-.0352-.04-.0238-.06-.0348-.04-.0238-.0606-.0352-.04-.0235-.06-.0348-.04-.0238-.06-.0349-.04-.0241-.06-.0351-.04-.0238-.06-.0348-.04-.0241-.06-.0352-.04-.0238-.06-.0348-.04-.0238-.0605-.0352-.04-.0238-.06-.0348-.04-.0238-.06-.0352-.04-.0238-.06-.0348-.04-.0238-.06-.0351-.04-.0239-.06-.0349-.04-.0238-.06-.0351-.04-.0238-.06-.0349-.04-.0238-.06-.0351-.04-.0238-.0605-.0349-.04-.0238-.06-.0351-.04-.0238-.06-.0348-.04-.0239-.06-.0349a1.1977,1.1977,0,0,0-1.2409-.0215l-8.234,4.7541a1.2126,1.2126,0,0,0-.6063,1.05v4.3491a14.7078,14.7078,0,0,1-5.5735,11.54c-.339.27-.6926.5207-1.0549.76.001-.0477.009-.0933.009-.1412l.047-40.8682.0009-.7133v-.0014A5.1073,5.1073,0,0,1,46.01,18.1939c.037,0,.0732.0041.11.005a5.9976,5.9976,0,0,1,1.0066,3.3558V31.6839A1.2068,1.2068,0,0,0,47.7755,32.7581Z"/>
        <g>
          <path class="eda20a9e-8db3-4690-ba7e-c5f4e6fd0304" d="M27.2892,15.4523V26.395a.9493.9493,0,0,1-1.424.8221L10.9559,18.6092a.9492.9492,0,0,1-.4747-.8221V6.8443a.9493.9493,0,0,1,1.424-.8221L26.8145,14.63A.9491.9491,0,0,1,27.2892,15.4523Z"/>
          <path class="f14f7769-464a-4454-b4e7-ffdc3217a346" d="M59.7,43.9945a1.2125,1.2125,0,0,1,1.8189,1.05s-.0139,6.963-.0418,7.36A17.128,17.128,0,0,1,50.86,67.0507a16.858,16.858,0,0,1-2.0322.6815,17.2482,17.2482,0,0,1-7.6683.2662,14.7186,14.7186,0,0,0,9.7-13.8506V49.7987a1.2125,1.2125,0,0,1,.6063-1.05Z"/>
          <polygon class="ab5d9d43-e7f3-4433-afd7-c7962e54d2fb" points="30.503 36.956 30.5 36.954 30.5 36.958 30.503 36.956"/>
          <polygon class="bd266e88-79b8-4733-aa89-7aef90e8dfd5" points="30.5 55.506 30.5 50.637 30.5 50.631 30.5 55.512 30.5 55.506"/>
          <path class="e58177d4-038b-411d-8a67-b50e55efd810" d="M56.2206,2.7538a5.3044,5.3044,0,0,0-2.6077.6631L31.1064,16.4113a1.2123,1.2123,0,0,0-.6063,1.05V36.9541l.003.0019-.003.0018v-.0037l0,0V50.6313l0,.0061v4.869l0,.0061V70.2808l.0044.0076.6862.3962.0007,0A6.8915,6.8915,0,0,0,39.9842,68.37h.0006c.1207-.1789.2334-.3644.3377-.5548a6.86,6.86,0,0,0,.8367-3.2933l.0471-40.868.0008-.7133,0-.0014a5.1072,5.1072,0,0,1,4.8022-4.7453,4.4492,4.4492,0,0,1,2.8841,1.0828h.0007A5.7973,5.7973,0,0,1,50.86,23.7189V33.8481a1.2213,1.2213,0,0,0,1.832,1.0577l8.2164-4.7436a1.2211,1.2211,0,0,0,.6107-1.0576V8.2238A5.4212,5.4212,0,0,0,56.2206,2.7538Z"/>
          <path class="b2180d92-31d0-4ca9-b40e-337e3a6d74a1" d="M10.4812,27.0407V37.9836a.9491.9491,0,0,0,.4746.8221l19.07,11.01a.949.949,0,0,1,.4744.816V36.9539L11.9051,26.2186A.9492.9492,0,0,0,10.4812,27.0407Z"/>
          <path class="b3e24f7d-578c-42f7-b2bc-aedbe5241a6b" d="M29.0761,56.3286,11.9052,46.4153a.9493.9493,0,0,0-1.424.8221V58.18a.95.95,0,0,0,.4747.8222L30.5,70.2859V55.5125A.9491.9491,0,0,1,29.0761,56.3286Z"/>
        </g>
        <polygon class="bf243ccd-9257-4728-aec0-dd7112c663bb" points="30.5 17.51 30.5 36.483 41.159 36.483 41.159 23.399 30.5 17.51"/>
        <path class="b56c3dbc-70ae-45b7-92b5-c63b54285fd9" d="M29.0761,56.3286,11.9052,46.4153a.9493.9493,0,0,0-1.424.8221V58.18a.95.95,0,0,0,.4747.8222L30.5,70.2859V55.5125A.9491.9491,0,0,1,29.0761,56.3286Z"/>
        <path class="b14a14f7-4928-40e9-9941-7f1754e8a781" d="M10.4812,27.0407V37.9836a.9491.9491,0,0,0,.4746.8221l19.07,11.01a.949.949,0,0,1,.4744.816V36.9539L11.9051,26.2186A.9492.9492,0,0,0,10.4812,27.0407Z"/>
      </g>
    </g>
  </g>
</svg>
