<svg xmlns="http://www.w3.org/2000/svg" xmlns:xlink="http://www.w3.org/1999/xlink" viewBox="0 0 95 101">
  <defs>
    <style>
      .bc766893-f4bb-4b5b-b013-02edb3457e0c {
        fill: none;
      }

      .b749d272-a22e-4560-82b8-b719920b57ef {
        isolation: isolate;
      }

      .bd65bc52-40b0-44c5-9d85-78936ca3e8f2 {
        fill: url(#ef9ed6b3-2591-4e87-a3ec-2c70f12cfcdb);
      }

      .f15966cd-f2c0-41a5-a252-27fd12b7f224 {
        fill: url(#a03f1c38-a0bf-4a76-ada2-ed2a2059d31c);
      }

      .acc028f3-b2f3-4522-b0bf-6550b946de72 {
        fill: url(#fa04fd81-d548-43da-a412-bf29f2255da1);
      }

      .aebb6ed7-ffd5-4579-a945-78d6f7a84475 {
        fill: url(#ebfce67b-8ee8-4249-b882-514a9ff83a96);
      }

      .e62d8715-e598-480c-89dd-86a4d06b441e {
        fill: url(#bf593e1b-5a5b-4575-9a7b-722c812a01eb);
      }

      .bc1a5919-4eb7-4b31-968e-fb78ef61f10a {
        fill: url(#fda0d9c3-9bcb-4696-a764-aee1817ff648);
      }

      .b2cc736d-05ee-4a23-b243-9213a910c385 {
        fill: url(#ba0edbbf-043c-4797-801c-53f88e6c3497);
      }

      .af46118b-75ed-4899-b4ec-e6c78e20094a {
        fill: url(#b24824e9-8af3-4feb-9bff-687e9d25184a);
      }

      .a9cdd3de-33d2-4e92-a855-1adca2c0892d, .aa33b227-a957-47f9-9a46-848fb41d6807, .ac3da269-cd2b-4fcd-b78a-ac98340e70c4, .b5c59337-c7e0-4735-ab8b-bb48a1bd518d, .bf42884b-b290-43a2-b058-ca6e10163374, .f52bab19-327a-433c-8ffb-cc56758490f6 {
        mix-blend-mode: multiply;
      }

      .f52bab19-327a-433c-8ffb-cc56758490f6 {
        fill: url(#a8020a0b-1635-4952-bf72-2b73e7238eaf);
      }

      .bf42884b-b290-43a2-b058-ca6e10163374 {
        fill: url(#bb5e48f0-ba76-47d9-8fc7-606dce032c82);
      }

      .a9cdd3de-33d2-4e92-a855-1adca2c0892d {
        fill: url(#a51d1614-69e7-4a69-99c2-d6b0497fe85c);
      }

      .a405b861-9062-4355-8a92-2d4d263d19a6 {
        fill: url(#bdb952c1-f56b-46a7-9cf3-35c3e8a6c630);
      }

      .ee3edbf3-1116-4c56-b97d-d5d4907bfdb7 {
        fill: url(#ad32201e-35c0-40e6-840d-b6d4f929cc3c);
      }

      .fb0ff429-c834-42f8-9fdf-d4feb58839c3 {
        fill: url(#b1d0e568-49c5-44e0-8aab-e3b759902619);
      }

      .ae626832-de88-4b7c-bd0c-b26a6e0be67b {
        fill: url(#faeea875-d757-4ec4-a7f7-6bd016ec7f8c);
      }

      .f1b1e9f6-c723-4e70-b468-cbc28d32dc42 {
        fill: url(#fca72e2b-3cf3-48df-a8d3-9fb3ad81b750);
      }

      .aa33b227-a957-47f9-9a46-848fb41d6807 {
        fill: url(#f0990d5a-6780-4ca0-9141-596738d9c5a9);
      }

      .b9343fb4-b189-4f57-a181-d2859bec62cc {
        clip-path: url(#a01f5122-4e4d-4912-8c19-edb919a22733);
      }

      .ab77f3cd-c92a-4236-be37-abc84a91a1cc {
        fill: url(#be6b09ec-a4f7-40c9-a3e3-28da39add773);
      }

      .eba0d2c0-f317-4058-9e81-6c5a678e48e6 {
        clip-path: url(#bb14b63a-1f55-4eb8-a8d2-38a53c4a8cfd);
      }

      .b5c59337-c7e0-4735-ab8b-bb48a1bd518d {
        fill: url(#abcba430-1129-47fa-99f2-11a7397ec76e);
      }

      .ea72a090-2626-47df-9085-3af619d820ae {
        clip-path: url(#be2a4cff-9769-473c-bfb7-6b7d57d328bd);
      }

      .ac3da269-cd2b-4fcd-b78a-ac98340e70c4 {
        fill: url(#a1f60d0d-6f2f-4c85-be23-9009eda08a62);
      }
    </style>
    <linearGradient id="ef9ed6b3-2591-4e87-a3ec-2c70f12cfcdb" x1="42.1534" y1="49.8805" x2="53.7383" y2="-2.2515" gradientUnits="userSpaceOnUse">
      <stop offset="0" stop-color="#fed061"/>
      <stop offset="0.4944" stop-color="#812082"/>
      <stop offset="1" stop-color="#50368c"/>
    </linearGradient>
    <linearGradient id="a03f1c38-a0bf-4a76-ada2-ed2a2059d31c" x1="43.5577" y1="-6.0167" x2="18.4571" y2="47.0807" xlink:href="#ef9ed6b3-2591-4e87-a3ec-2c70f12cfcdb"/>
    <linearGradient id="fa04fd81-d548-43da-a412-bf29f2255da1" x1="79.1689" y1="10.8176" x2="54.0683" y2="63.9151" xlink:href="#ef9ed6b3-2591-4e87-a3ec-2c70f12cfcdb"/>
    <linearGradient id="ebfce67b-8ee8-4249-b882-514a9ff83a96" x1="47.6544" y1="21.7662" x2="38.4205" y2="41.2993" xlink:href="#ef9ed6b3-2591-4e87-a3ec-2c70f12cfcdb"/>
    <linearGradient id="bf593e1b-5a5b-4575-9a7b-722c812a01eb" x1="62.6938" y1="3.0294" x2="37.5932" y2="56.1269" xlink:href="#ef9ed6b3-2591-4e87-a3ec-2c70f12cfcdb"/>
    <linearGradient id="fda0d9c3-9bcb-4696-a764-aee1817ff648" x1="63.6412" y1="3.4773" x2="38.5406" y2="56.5747" xlink:href="#ef9ed6b3-2591-4e87-a3ec-2c70f12cfcdb"/>
    <linearGradient id="ba0edbbf-043c-4797-801c-53f88e6c3497" x1="51.5556" y1="-2.2359" x2="26.455" y2="50.8615" xlink:href="#ef9ed6b3-2591-4e87-a3ec-2c70f12cfcdb"/>
    <linearGradient id="b24824e9-8af3-4feb-9bff-687e9d25184a" x1="57.8042" y1="0.718" x2="32.7036" y2="53.8154" xlink:href="#ef9ed6b3-2591-4e87-a3ec-2c70f12cfcdb"/>
    <linearGradient id="a8020a0b-1635-4952-bf72-2b73e7238eaf" x1="47.3616" y1="37.5465" x2="47.3616" y2="11.7223" gradientUnits="userSpaceOnUse">
      <stop offset="0.4001" stop-color="#944493" stop-opacity="0"/>
      <stop offset="1" stop-color="#301350"/>
    </linearGradient>
    <linearGradient id="bb5e48f0-ba76-47d9-8fc7-606dce032c82" x1="31.9504" y1="49.2334" x2="43.1902" y2="47.9233" xlink:href="#a8020a0b-1635-4952-bf72-2b73e7238eaf"/>
    <linearGradient id="a51d1614-69e7-4a69-99c2-d6b0497fe85c" x1="31.1808" y1="27.1809" x2="41.3173" y2="40.4893" xlink:href="#a8020a0b-1635-4952-bf72-2b73e7238eaf"/>
    <linearGradient id="bdb952c1-f56b-46a7-9cf3-35c3e8a6c630" x1="42.0603" y1="1.6968" x2="-2.0266" y2="115.615" xlink:href="#ef9ed6b3-2591-4e87-a3ec-2c70f12cfcdb"/>
    <linearGradient id="ad32201e-35c0-40e6-840d-b6d4f929cc3c" x1="53.5079" y1="6.1271" x2="9.4209" y2="120.0453" xlink:href="#ef9ed6b3-2591-4e87-a3ec-2c70f12cfcdb"/>
    <linearGradient id="b1d0e568-49c5-44e0-8aab-e3b759902619" x1="68.8326" y1="12.0578" x2="24.7456" y2="125.976" xlink:href="#ef9ed6b3-2591-4e87-a3ec-2c70f12cfcdb"/>
    <linearGradient id="faeea875-d757-4ec4-a7f7-6bd016ec7f8c" x1="85.8105" y1="18.6284" x2="41.7235" y2="132.5465" xlink:href="#ef9ed6b3-2591-4e87-a3ec-2c70f12cfcdb"/>
    <linearGradient id="fca72e2b-3cf3-48df-a8d3-9fb3ad81b750" x1="105.4092" y1="26.2132" x2="61.3222" y2="140.1314" xlink:href="#ef9ed6b3-2591-4e87-a3ec-2c70f12cfcdb"/>
    <linearGradient id="f0990d5a-6780-4ca0-9141-596738d9c5a9" x1="83.5943" y1="80.0675" x2="86.6436" y2="80.0675" gradientUnits="userSpaceOnUse">
      <stop offset="0" stop-color="#944493" stop-opacity="0"/>
      <stop offset="1" stop-color="#301350"/>
    </linearGradient>
    <clipPath id="a01f5122-4e4d-4912-8c19-edb919a22733">
      <path class="bc766893-f4bb-4b5b-b013-02edb3457e0c" d="M18.9366,66.5332a.9492.9492,0,0,1,.1221,1.4363l-1.2532,1.7582a.9628.9628,0,0,1-1.4368.2749c-.0764-.0459-.7489-.5044-.9018-.5806a10.4458,10.4458,0,0,0-1.0241-.5353,5.9069,5.9069,0,0,0-1.8341-.3819,3.0721,3.0721,0,0,0-2.1552.7335,2.3319,2.3319,0,0,0-.81,1.7733c0,1.5438,1.36,2.5064,4.28,3.4694.6878.2291,1.177.3976,1.4673.4889.2752.0918.7489.2754,1.406.55a12.8593,12.8593,0,0,1,1.4676.7335c.3208.2144.7335.52,1.2072.9021A5.0322,5.0322,0,0,1,21.1679,79.8a5.9427,5.9427,0,0,1,.2752,1.85,6.6593,6.6593,0,0,1-2.2008,5.1665,9.1809,9.1809,0,0,1-6.3432,2.0018,11.2018,11.2018,0,0,1-8.6206-3.6071.9439.9439,0,0,1,.1377-1.345l1.62-1.7425a.8226.8226,0,0,1,1.3757.0615,6.5393,6.5393,0,0,0,4.8606,2.2466,6.013,6.013,0,0,0,3.0416-.6877A2.2936,2.2936,0,0,0,15.421,79.8,13.826,13.826,0,0,0,11.86,78.2718c-.7489-.26-1.3909-.4894-1.9108-.7033a13.0245,13.0245,0,0,1-1.8341-.9323,6.8717,6.8717,0,0,1-1.6966-1.3147,6.4347,6.4347,0,0,1-1.5742-4.2488,6.1746,6.1746,0,0,1,2.14-4.8759,8.2435,8.2435,0,0,1,5.6248-1.8647A10.15,10.15,0,0,1,18.9366,66.5332Z"/>
    </clipPath>
    <linearGradient id="be6b09ec-a4f7-40c9-a3e3-28da39add773" x1="9.4178" y1="82.9928" x2="9.4178" y2="65.4455" xlink:href="#f0990d5a-6780-4ca0-9141-596738d9c5a9"/>
    <clipPath id="bb14b63a-1f55-4eb8-a8d2-38a53c4a8cfd">
      <path class="bc766893-f4bb-4b5b-b013-02edb3457e0c" d="M72.24,73.6708a6.2676,6.2676,0,0,1,1.299,4.1575v9.6445a.8423.8423,0,0,1-.8712.902H70.1006c-.5656,0-.8408-.2906-.8408-.8713l-.0305-8.4523c0-2.0482-.78-3.0723-2.354-3.0723-1.7576,0-2.7817,1.59-2.7817,4.1726v7.291a.7388.7388,0,0,1-.84.8405H60.6547a.8394.8394,0,0,1-.8561-.8713V78.9594q0-3.0723-2.4761-3.0723c-1.6661,0-2.8428,1.3909-2.8428,3.6989v7.8257a.786.786,0,0,1-.9018.8713H51.1324a.786.786,0,0,1-.9018-.8713v-13.94a.8011.8011,0,0,1,.9018-.9016h2.4455a.8011.8011,0,0,1,.9018.9016v1.4827a5.0051,5.0051,0,0,1,4.6312-2.8888,4.48,4.48,0,0,1,4.3561,2.5068,5.5249,5.5249,0,0,1,4.7536-2.4457A4.9782,4.9782,0,0,1,72.24,73.6708Z"/>
    </clipPath>
    <linearGradient id="abcba430-1129-47fa-99f2-11a7397ec76e" x1="55.5925" y1="75.9215" x2="54.6015" y2="75.9215" xlink:href="#f0990d5a-6780-4ca0-9141-596738d9c5a9"/>
    <clipPath id="be2a4cff-9769-473c-bfb7-6b7d57d328bd">
      <path class="bc766893-f4bb-4b5b-b013-02edb3457e0c" d="M46.3671,88.512a5.2142,5.2142,0,0,1,.0918,8.9114,13.2707,13.2707,0,0,1-7.0463,1.5589,13.6085,13.6085,0,0,1-7.0309-1.5135A4.7957,4.7957,0,0,1,29.89,93.1281c0-2.583,1.6507-4.5086,4.57-5.5025a2.3288,2.3288,0,0,1,.6876-3.821,6.1846,6.1846,0,0,1-3.286-5.35,5.8825,5.8825,0,0,1,2.0021-4.7382,8.23,8.23,0,0,1,5.4566-1.6814H46.52a.9061.9061,0,0,1,1.0241,1.04l-.03,1.4671a.8237.8237,0,0,1-1.0241.902l-2.2927-.3668a4.4237,4.4237,0,0,1,2.8123,4.0042A5.0087,5.0087,0,0,1,44.9,83.3309a8.9176,8.9176,0,0,1-5.4871,1.574c-1.4214,0-2.0939.2447-2.0939.9938,0,.6725.703,1.0085,2.0939,1.0085A13.0522,13.0522,0,0,1,46.3671,88.512Zm-6.924,7.0922a8.5414,8.5414,0,0,0,3.7754-.6877,2.1864,2.1864,0,0,0,1.36-2.0331c0-1.7879-1.9718-2.69-5.1358-2.69a8.5707,8.5707,0,0,0-3.6835.6876,2.1514,2.1514,0,0,0-.0918,4.0354A8.496,8.496,0,0,0,39.4431,95.6042Zm0-19.9618a3.8687,3.8687,0,0,0-2.4914.734,2.5025,2.5025,0,0,0-.9169,2.0785,2.5837,2.5837,0,0,0,.9169,2.1093,3.79,3.79,0,0,0,2.4914.7643,3.7737,3.7737,0,0,0,2.4761-.7643,2.6182,2.6182,0,0,0,.9018-2.1093,2.535,2.535,0,0,0-.9018-2.0785A3.8516,3.8516,0,0,0,39.4431,75.6424Z"/>
    </clipPath>
    <linearGradient id="a1f60d0d-6f2f-4c85-be23-9009eda08a62" x1="36.9122" y1="87.5888" x2="36.9122" y2="82.3325" xlink:href="#f0990d5a-6780-4ca0-9141-596738d9c5a9"/>
  </defs>
  <g class="b749d272-a22e-4560-82b8-b719920b57ef">
    <g id="af77617e-543d-4e17-998b-14169a3456f5" data-name="Layer 2">
      <g>
        <path class="bd65bc52-40b0-44c5-9d85-78936ca3e8f2" d="M57.0573,28.1265c.02.0123.039.0236.0594.0344s.039.0236.0594.0344c.02.0123.039.0236.0594.0344.02.0123.039.0236.0594.0344.02.0123.0391.0236.0595.0345s.039.0235.0594.0344.039.0238.0594.0346.039.0234.0594.0344.039.0236.0594.0344c.02.0123.0391.0236.0594.0345s.0391.0235.0595.0344.039.0235.0593.0344.0391.0235.0595.0344.039.0238.0594.0346.0391.0236.0594.0344c.02.0123.039.0236.0594.0345s.0391.0235.0595.0344.039.0235.0594.0344.039.0235.0594.0344.039.0236.0594.0344c.02.0123.039.0236.0594.0344.02.0123.0391.0236.0595.0344.02.0123.039.0238.0594.0347s.039.0235.0594.0344.039.0236.0594.0344c.02.0123.039.0236.0594.0344.02.0123.0391.0236.0594.0344.02.0123.0391.0236.0595.0344.02.0123.039.0236.0593.0344.02.0123.0391.0236.0595.0347s.039.0236.0594.0344c.02.0123.0391.0236.0594.0344.02.0123.039.0236.0594.0344s.0391.0236.0595.0344c.02.0123.039.0236.0594.0344.02.0123.039.0236.0594.0345s.039.0235.0594.0344.039.0235.0594.0344.039.0236.0595.0346.039.0236.0593.0344c.02.0123.0391.0236.0595.0345s.039.0235.0593.0344.0391.0235.0595.0344.039.0235.0594.0344.0391.0236.0594.0344c.02.0123.0391.0236.0594.0344.02.0123.0391.0238.0595.0347s.039.0235.0594.0344.039.0235.0594.0344.039.0235.0594.0344a.9789.9789,0,0,0,1.0193.0212l6.6686-3.85a.991.991,0,0,0,.4957-.8584V8.214a4.4817,4.4817,0,0,0-2.2663-3.9L65.886,4.28l-.0593-.0345c-.02-.0115-.04-.0233-.0595-.0344s-.0394-.0233-.0595-.0344-.0394-.0233-.0594-.0346l-.0594-.0344L65.53,4.0728,65.47,4.0384l-.0594-.0344L65.3512,3.97l-.0592-.0344c-.02-.0115-.04-.0233-.06-.0344s-.0394-.0233-.0594-.0344-.0394-.0234-.0594-.0347-.0394-.0231-.0593-.0341-.04-.0234-.06-.0347l-.0594-.0344c-.02-.0116-.0394-.0233-.0594-.0344s-.0394-.0233-.0594-.0344-.0394-.0234-.0593-.0344-.04-.0234-.06-.0347l-.0594-.0344-.0594-.0344-.0593-.0344L64.46,3.453l-.0594-.0344c-.02-.0116-.04-.0234-.0595-.0345s-.0393-.0233-.0593-.0344-.04-.0233-.0595-.0344-.0394-.0233-.0594-.0346l-.0594-.0344-.0593-.0344-.06-.0345c-.02-.0115-.0394-.0233-.0594-.0344s-.0394-.0233-.0594-.0344-.0394-.0233-.0594-.0344-.0394-.0233-.0593-.0344-.04-.0233-.06-.0347l-.0594-.0344-.0594-.0344-.0593-.0344L63.45,2.8675c-.02-.0115-.0394-.0233-.0595-.0344s-.0394-.0233-.0594-.0344-.0393-.0234-.0593-.0344-.04-.0234-.0595-.0347l-.0594-.0344-.0594-.0344-.0595-.0344-.0592-.0344a4.1921,4.1921,0,0,0-2.0935-.5742,4.3059,4.3059,0,0,0-2.1165.5381c-.0023.0014-11.4327,6.6009-16.2059,9.3566l-12.056-6.96a.7612.7612,0,0,0-.7937.0177c-.0172.0089-.0335.0184-.05.0287s-.0337.0186-.05.029-.0337.0186-.05.029-.0337.0186-.05.0288-.0338.0186-.05.0289-.0336.0187-.05.029-.0337.0187-.05.029-.0337.0184-.05.0288-.0336.0186-.05.029-.0337.0186-.05.029-.0337.0186-.05.0287-.0337.0186-.05.029-.0338.0186-.05.029-.0336.0184-.05.0288-.0337.0186-.05.0289-.0337.0187-.05.029-.0336.0187-.05.0288-.0337.0186-.05.029-.0336.0186-.05.029-.0337.0186-.05.029-.0337.0186-.05.029-.0337.0183-.05.0287-.0338.0186-.05.029-.0336.0186-.05.029c-.0172.0089-.0337.0184-.05.0287s-.0337.0187-.05.029-.0336.0187-.05.029-.0337.0184-.05.0288-.0337.0186-.05.029-.0337.0186-.05.029c-.0173.0089-.0338.0183-.05.0287s-.0336.0186-.05.029-.0337.0186-.05.029-.0336.0186-.05.029c-.0173.0089-.0337.0184-.05.0287s-.0337.0187-.05.029-.0336.0187-.05.0288-.0337.0186-.05.029-.0337.0186-.05.029-.0337.0186-.05.029a.574.574,0,0,0-.05.029c-.0172.0089-.0336.0183-.05.0287s-.0337.0186-.05.029-.0338.0186-.05.029c-.0172.0089-.0336.0184-.05.0287s-.0337.0187-.05.029-.0337.0187-.05.029-.0336.0184-.05.0288-.0337.0186-.05.029-.0336.0186-.05.029a.7605.7605,0,0,0-.4124.6785v8.8815a.7706.7706,0,0,0,.3853.6673l12.1007,6.9864a.7591.7591,0,0,0,.7315.0165v3.1459l-9.503-5.4863a.76.76,0,0,0-.7959.0191c-.0173.0092-.0336.0191-.05.03s-.0336.0191-.05.03-.0336.0191-.05.03-.0336.0191-.05.03-.0336.0191-.05.03c-.0173.0091-.0337.019-.05.03-.0173.0091-.0336.019-.05.0294s-.0336.0193-.05.03-.0336.0193-.05.03-.0336.0193-.05.03-.0336.0193-.05.03-.0337.0193-.05.03-.0336.0191-.05.03-.0336.0191-.05.03-.0336.0193-.05.03-.0337.0191-.05.03-.0337.0191-.05.03-.0336.0191-.05.03-.0337.0191-.05.03-.0336.0191-.05.0294-.0336.0194-.05.03-.0336.0194-.05.03-.0336.0194-.05.03-.0336.0191-.05.03-.0336.0191-.05.03-.0336.0191-.05.03-.0336.0191-.05.03-.0336.0191-.05.0295-.0336.0193-.05.03-.0336.0191-.05.0295-.0336.0193-.05.03-.0336.0193-.05.03-.0336.0193-.05.03-.0336.0193-.05.03-.0336.0191-.05.03-.0336.0191-.05.03-.0335.0191-.05.03-.0336.0191-.05.03-.0336.0191-.05.03-.0336.0191-.05.03-.0335.0191-.05.03-.0336.0191-.05.0294-.0336.0194-.05.03-.0337.0194-.05.03-.0335.0193-.05.03-.0336.0191-.05.03-.0336.0193-.05.03-.0335.0191-.05.03-.0336.0191-.05.03-.0336.0191-.05.0295a.7612.7612,0,0,0-.41.6778v8.8815a.7706.7706,0,0,0,.3853.6673l12.8319,7.4083v.433l0,.0052v2.3343l-9.503-5.4863a.7609.7609,0,0,0-.794.0177c-.0172.0092-.0337.0189-.05.029s-.0337.0189-.05.0292-.0336.0187-.05.029-.0336.0186-.05.029-.0337.0186-.05.029-.0337.0189-.05.0292-.0337.0186-.05.029-.0336.0186-.05.029-.0337.0189-.05.0292-.0337.0187-.05.029-.0337.0186-.05.029-.0336.0186-.05.029-.0336.0189-.05.0292-.0337.0187-.05.029-.0337.0186-.05.029-.0337.0186-.05.0292c-.0173.009-.0336.0187-.05.029s-.0337.0187-.05.029-.0337.0186-.05.029-.0337.0186-.05.029-.0337.0189-.05.0292-.0336.0186-.05.029-.0337.0186-.05.029-.0337.0186-.05.029-.0337.0189-.05.0292-.0336.0186-.05.029-.0336.0186-.05.029-.0337.0189-.05.0292-.0337.0187-.05.029-.0336.0186-.05.029-.0337.0186-.05.029-.0336.0186-.05.029-.0336.0189-.05.0292-.0337.0186-.05.029-.0337.0186-.05.029-.0336.0189-.05.0292-.0337.0186-.05.029-.0337.0186-.05.029-.0337.0186-.05.029-.0336.0189-.05.0292-.0336.0186-.05.029-.0337.0186-.05.029-.0337.0186-.05.029-.0336.0189-.05.0292-.0337.0186-.05.029-.0337.0186-.05.029-.0337.0186-.05.0292c-.0172.009-.0336.0187-.05.029s-.0337.0186-.05.029-.0336.0186-.05.029a.7612.7612,0,0,0-.4119.6786V48.76a.7707.7707,0,0,0,.3853.6673l15.8622,9.1579v0l.0034.0021h0l.557.3218,0,0a5.5936,5.5936,0,0,0,7.1368-1.879h.0005q.1468-.2178.274-.45c.0371-.0678.07-.1307.104-.2l.5751.3489a13.9894,13.9894,0,0,0,6.2238-.2161,13.69,13.69,0,0,0,1.6494-.5529,13.8568,13.8568,0,0,0,8.6172-11.8871c.0226-.3224.034-5.9737.034-5.9737a.9724.9724,0,0,0-.5181-.8633c-.0163-.01-.0323-.0193-.0491-.0283s-.0323-.0193-.0491-.0285-.0322-.0193-.0489-.0283-.0323-.0193-.0491-.0285-.0322-.0193-.049-.0283-.0323-.0193-.0492-.0285-.0322-.0194-.0489-.0283-.0322-.0193-.049-.0285-.0323-.0194-.0491-.0283-.0323-.0193-.0491-.0285-.0322-.0194-.0489-.0283-.0323-.0193-.049-.0285-.0323-.0194-.0491-.0283-.0323-.0193-.0491-.0285-.0322-.0191-.0489-.0283-.0323-.0193-.049-.0283-.0323-.02-.0491-.0285-.0323-.0193-.049-.0283-.0323-.02-.0491-.0285-.0323-.0193-.049-.0283-.0323-.0193-.049-.0285-.0323-.0194-.049-.0283-.0324-.0193-.0492-.0285-.0322-.0194-.049-.0283-.0322-.0193-.049-.0285-.0322-.0194-.049-.0283-.0323-.0193-.0491-.0285-.0323-.0194-.049-.0283-.0322-.0193-.049-.0285-.0322-.0194-.049-.0283-.0324-.0193-.0492-.0285-.0322-.0191-.0489-.0283-.0322-.0193-.049-.0283-.0323-.02-.049-.0285-.0324-.0194-.0491-.0283-.0323-.02-.0491-.0285-.0322-.0194-.0489-.0283-.0323-.0193-.0491-.0285-.0323-.0194-.049-.0283-.0323-.0193-.0491-.0285-.0322-.0194-.049-.0283-.0323-.0193-.049-.0285-.0323-.0194-.049-.0283-.0324-.0193-.0492-.0285-.0322-.0194-.049-.0283-.0322-.0193-.0489-.0285-.0323-.0194-.0491-.0283-.0323-.0194-.0491-.0285-.0322-.0194-.049-.0283-.0322-.0194-.049-.0283a.9721.9721,0,0,0-1.0072-.0175l-6.6828,3.8586a.984.984,0,0,0-.4921.8523v3.53a11.9373,11.9373,0,0,1-4.5236,9.366c-.2751.2188-.5621.4226-.8562.6166.0008-.0386.0073-.0757.0073-.1145l.0382-33.17.0007-.5789v-.0011a4.1451,4.1451,0,0,1,3.8977-3.8513c.03,0,.0594.0033.0893.004a4.8679,4.8679,0,0,1,.817,2.7237v8.2211A.9794.9794,0,0,0,57.0573,28.1265Z"/>
        <g>
          <path class="f15966cd-f2c0-41a5-a252-27fd12b7f224" d="M40.43,14.0807v8.8814a.77.77,0,0,1-1.1558.6672L27.1736,16.643a.7706.7706,0,0,1-.3853-.6673V7.0943a.7706.7706,0,0,1,1.1558-.6673l12.1008,6.9865A.77.77,0,0,1,40.43,14.0807Z"/>
          <path class="acc028f3-b2f3-4522-b0bf-6550b946de72" d="M66.7354,37.2462a.9842.9842,0,0,1,1.4763.8523s-.0114,5.6514-.034,5.9737a13.9017,13.9017,0,0,1-8.6172,11.887,13.6909,13.6909,0,0,1-1.6494.5531,13.995,13.995,0,0,1-6.2238.216,11.9462,11.9462,0,0,0,7.8732-11.2414v-3.53a.9842.9842,0,0,1,.4921-.8523Z"/>
          <polygon class="aebb6ed7-ffd5-4579-a945-78d6f7a84475" points="43.039 31.534 43.036 31.532 43.036 31.535 43.039 31.534"/>
          <polygon class="e62d8715-e598-480c-89dd-86a4d06b441e" points="43.036 46.59 43.036 42.638 43.036 42.633 43.036 46.594 43.036 46.59"/>
          <path class="bc1a5919-4eb7-4b31-968e-fb78ef61f10a" d="M63.9115,3.7743a4.3063,4.3063,0,0,0-2.1165.5382L43.5282,14.859a.9842.9842,0,0,0-.4921.8523V31.5321l.0025.0015-.0025.0015v-.003l0,0V42.6328l0,.005V46.59l0,.0049V58.5808l.0036.0062.557.3215,0,0A5.5934,5.5934,0,0,0,50.7337,57.03h.0005c.0979-.1451.1894-.2957.274-.45a5.5666,5.5666,0,0,0,.6791-2.6729l.0382-33.1695.0007-.5789,0-.0011a4.145,4.145,0,0,1,3.8976-3.8514,3.6109,3.6109,0,0,1,2.3408.8788h.0005A4.7051,4.7051,0,0,1,59.5605,20.79v8.2211a.9913.9913,0,0,0,1.4869.8585l6.6686-3.85a.9915.9915,0,0,0,.4957-.8585V8.2139A4.4,4.4,0,0,0,63.9115,3.7743Z"/>
          <path class="b2cc736d-05ee-4a23-b243-9213a910c385" d="M26.7883,23.4862v8.8815a.77.77,0,0,0,.3853.6672l15.4772,8.9356a.77.77,0,0,1,.385.6623V31.5319L27.944,22.8189A.77.77,0,0,0,26.7883,23.4862Z"/>
          <path class="af46118b-75ed-4899-b4ec-e6c78e20094a" d="M41.88,47.2569,27.9441,39.211a.7705.7705,0,0,0-1.1558.6673V48.76a.7705.7705,0,0,0,.3853.6673l15.8622,9.158v-11.99A.77.77,0,0,1,41.88,47.2569Z"/>
        </g>
        <polygon class="f52bab19-327a-433c-8ffb-cc56758490f6" points="43.036 15.751 43.036 31.15 51.687 31.15 51.687 20.53 43.036 15.751"/>
        <path class="bf42884b-b290-43a2-b058-ca6e10163374" d="M41.88,47.2569,27.9441,39.211a.7705.7705,0,0,0-1.1558.6673V48.76a.7705.7705,0,0,0,.3853.6673l15.8622,9.158v-11.99A.77.77,0,0,1,41.88,47.2569Z"/>
        <path class="a9cdd3de-33d2-4e92-a855-1adca2c0892d" d="M26.7883,23.4862v8.8815a.77.77,0,0,0,.3853.6672l15.4772,8.9356a.77.77,0,0,1,.385.6623V31.5319L27.944,22.8189A.77.77,0,0,0,26.7883,23.4862Z"/>
        <path class="a405b861-9062-4355-8a92-2d4d263d19a6" d="M18.9366,66.5332a.9492.9492,0,0,1,.1221,1.4363l-1.2532,1.7582a.9628.9628,0,0,1-1.4368.2749c-.0764-.0459-.7489-.5044-.9018-.5806a10.4458,10.4458,0,0,0-1.0241-.5353,5.9069,5.9069,0,0,0-1.8341-.3819,3.0721,3.0721,0,0,0-2.1552.7335,2.3319,2.3319,0,0,0-.81,1.7733c0,1.5438,1.36,2.5064,4.28,3.4694.6878.2291,1.177.3976,1.4673.4889.2752.0918.7489.2754,1.406.55a12.8593,12.8593,0,0,1,1.4676.7335c.3208.2144.7335.52,1.2072.9021A5.0322,5.0322,0,0,1,21.1679,79.8a5.9427,5.9427,0,0,1,.2752,1.85,6.6593,6.6593,0,0,1-2.2008,5.1665,9.1809,9.1809,0,0,1-6.3432,2.0018,11.2018,11.2018,0,0,1-8.6206-3.6071.9439.9439,0,0,1,.1377-1.345l1.62-1.7425a.8226.8226,0,0,1,1.3757.0615,6.5393,6.5393,0,0,0,4.8606,2.2466,6.013,6.013,0,0,0,3.0416-.6877A2.2936,2.2936,0,0,0,15.421,79.8,13.826,13.826,0,0,0,11.86,78.2718c-.7489-.26-1.3909-.4894-1.9108-.7033a13.0245,13.0245,0,0,1-1.8341-.9323,6.8717,6.8717,0,0,1-1.6966-1.3147,6.4347,6.4347,0,0,1-1.5742-4.2488,6.1746,6.1746,0,0,1,2.14-4.8759,8.2435,8.2435,0,0,1,5.6248-1.8647A10.15,10.15,0,0,1,18.9366,66.5332Z"/>
        <path class="ee3edbf3-1116-4c56-b97d-d5d4907bfdb7" d="M28.287,65.5091a2.79,2.79,0,0,1,.81,2.0175,2.7919,2.7919,0,0,1-2.8274,2.812,2.642,2.642,0,0,1-1.9718-.8253,2.7454,2.7454,0,0,1-.81-1.9867,2.79,2.79,0,0,1,.81-2.0175,2.642,2.642,0,0,1,1.9718-.8253A2.7442,2.7442,0,0,1,28.287,65.5091Zm-.7643,7.0614a.8034.8034,0,0,1,.9171.8713v13.97q0,.8711-.9171.8713h-2.43a.8036.8036,0,0,1-.9171-.8713v-13.97a.8034.8034,0,0,1,.9171-.8713Z"/>
        <path class="fb0ff429-c834-42f8-9fdf-d4feb58839c3" d="M46.3671,88.512a5.2142,5.2142,0,0,1,.0918,8.9114,13.2707,13.2707,0,0,1-7.0463,1.5589,13.6085,13.6085,0,0,1-7.0309-1.5135A4.7957,4.7957,0,0,1,29.89,93.1281c0-2.583,1.6507-4.5086,4.57-5.5025a2.3288,2.3288,0,0,1,.6876-3.821,6.1846,6.1846,0,0,1-3.286-5.35,5.8825,5.8825,0,0,1,2.0021-4.7382,8.23,8.23,0,0,1,5.4566-1.6814H46.52a.9061.9061,0,0,1,1.0241,1.04l-.03,1.4671a.8237.8237,0,0,1-1.0241.902l-2.2927-.3668a4.4237,4.4237,0,0,1,2.8123,4.0042A5.0087,5.0087,0,0,1,44.9,83.3309a8.9176,8.9176,0,0,1-5.4871,1.574c-1.4214,0-2.0939.2447-2.0939.9938,0,.6725.703,1.0085,2.0939,1.0085A13.0522,13.0522,0,0,1,46.3671,88.512Zm-6.924,7.0922a8.5414,8.5414,0,0,0,3.7754-.6877,2.1864,2.1864,0,0,0,1.36-2.0331c0-1.7879-1.9718-2.69-5.1358-2.69a8.5707,8.5707,0,0,0-3.6835.6876,2.1514,2.1514,0,0,0-.0918,4.0354A8.496,8.496,0,0,0,39.4431,95.6042Zm0-19.9618a3.8687,3.8687,0,0,0-2.4914.734,2.5025,2.5025,0,0,0-.9169,2.0785,2.5837,2.5837,0,0,0,.9169,2.1093,3.79,3.79,0,0,0,2.4914.7643,3.7737,3.7737,0,0,0,2.4761-.7643,2.6182,2.6182,0,0,0,.9018-2.1093,2.535,2.535,0,0,0-.9018-2.0785A3.8516,3.8516,0,0,0,39.4431,75.6424Z"/>
        <path class="ae626832-de88-4b7c-bd0c-b26a6e0be67b" d="M72.24,73.6708a6.2676,6.2676,0,0,1,1.299,4.1575v9.6445a.8423.8423,0,0,1-.8712.902H70.1006c-.5656,0-.8408-.2906-.8408-.8713l-.0305-8.4523c0-2.0482-.78-3.0723-2.354-3.0723-1.7576,0-2.7817,1.59-2.7817,4.1726v7.291a.7388.7388,0,0,1-.84.8405H60.6547a.8394.8394,0,0,1-.8561-.8713V78.9594q0-3.0723-2.4761-3.0723c-1.6661,0-2.8428,1.3909-2.8428,3.6989v7.8257a.786.786,0,0,1-.9018.8713H51.1324a.786.786,0,0,1-.9018-.8713v-13.94a.8011.8011,0,0,1,.9018-.9016h2.4455a.8011.8011,0,0,1,.9018.9016v1.4827a5.0051,5.0051,0,0,1,4.6312-2.8888,4.48,4.48,0,0,1,4.3561,2.5068,5.5249,5.5249,0,0,1,4.7536-2.4457A4.9782,4.9782,0,0,1,72.24,73.6708Z"/>
        <path class="f1b1e9f6-c723-4e70-b468-cbc28d32dc42" d="M88.8646,73.6405a5.94,5.94,0,0,1,2.0788,4.9981v8.8039c0,.5655-.26.8405-.7949.8405h-2.69c-.474,0-.7184-.275-.7184-.81V86.22a5.381,5.381,0,0,1-4.8757,2.5981,7.126,7.126,0,0,1-4.4784-1.3449,4.425,4.425,0,0,1-1.7579-3.7293q0-5.0436,7.52-5.0747l3.5615-.03v-.1529c0-1.7884-1.177-2.8736-3.1945-2.8736a6.1757,6.1757,0,0,0-3.653,1.4979.7421.7421,0,0,1-1.1006-.1837L77.539,75.4441a.73.73,0,0,1,.0305-1.1159,7.5823,7.5823,0,0,1,2.522-1.6356,9.0566,9.0566,0,0,1,3.5458-.6573A8.32,8.32,0,0,1,88.8646,73.6405ZM86.71,81.4965H83.0871c-2.1551,0-3.2249.6725-3.2249,2.0024-.0154,1.33.9933,2.0023,2.9957,2.0023C85.12,85.5012,86.6637,84.08,86.71,81.4965Z"/>
        <polygon class="aa33b227-a957-47f9-9a46-848fb41d6807" points="86.71 78.639 86.71 81.497 83.66 81.497 83.66 78.665 86.71 78.639"/>
        <g class="b9343fb4-b189-4f57-a181-d2859bec62cc">
          <path class="ab77f3cd-c92a-4236-be37-abc84a91a1cc" d="M7.949,65.4928s.1573,6.6406,3.8728,8.0307,2.06,5.6063,2.06,5.6063a20.9828,20.9828,0,0,0-2.4386-1.0035c-.6188-.1389-4.7912-1.8583-5.8619-3.6519C4.5448,72.7377,3.2241,67.9965,7.949,65.4928Z"/>
        </g>
        <g class="eba0d2c0-f317-4058-9e81-6c5a678e48e6">
          <path class="b5c59337-c7e0-4735-ab8b-bb48a1bd518d" d="M54.48,74.9548v4.2939s.02-2.7094,2.156-3.2763l-.0171-3.3782A5.3007,5.3007,0,0,0,54.48,74.9548Z"/>
        </g>
        <g class="ea72a090-2626-47df-9085-3af619d820ae">
          <path class="ac3da269-cd2b-4fcd-b78a-ac98340e70c4" d="M35.1481,83.8046s1.3075,1.07,4.7166,1.0929-1.7019,2.87-1.7019,2.87-5.0979-.0264-5.1309-.0925a8.8607,8.8607,0,0,1-.1717-2.74,5.9689,5.9689,0,0,1,1.2745-1.2678Z"/>
        </g>
      </g>
    </g>
  </g>
</svg>
