<svg xmlns="http://www.w3.org/2000/svg" viewBox="0 0 270 270">
  <defs>
    <style>
      .a6f00d58-c3d1-40c4-aa67-e35b4e8ee2df {
        fill: #e0d7ff;
      }
    </style>
  </defs>
  <g id="bb301ba6-5f6c-4683-891d-f4ed7b1c0001" data-name="line">
    <g>
      <path id="b43cf1de-ee25-4f27-90a5-58b3f18d4724" data-name="3" class="a6f00d58-c3d1-40c4-aa67-e35b4e8ee2df" d="M148.63,223.2387v-5.8116a12.61,12.61,0,0,1,12.61-12.61h1.794a1.3731,1.3731,0,0,0,.1718-.0173H71.6848a4.8394,4.8394,0,0,1-4.8393-4.8394v-5.6335a4.8394,4.8394,0,0,1,4.8393-4.8394h91.6524a4.8414,4.8414,0,0,1,4.6206,3.397,12.6469,12.6469,0,0,1,9.08-3.8647h2.1456a12.6445,12.6445,0,0,1,2.7412.3023V148.53l-6.2756,10.11a2.5177,2.5177,0,0,1-.17.2409c-.029.0393-.0641.0731-.0946.1112-.0747.0931-.1486.1873-.2314.2719-.0577.0587-.1148.1143-.1746.1678a3.6916,3.6916,0,0,1-.45.3425,2.4881,2.4881,0,0,1-.2211.1371l-3.0562,1.6686-4.249,2.32a4.8164,4.8164,0,0,1,1.1744,3.1546v5.6334a4.84,4.84,0,0,1-4.8394,4.8395H71.6848a4.8394,4.8394,0,0,1-4.8393-4.8395v-5.6334a4.8393,4.8393,0,0,1,4.8393-4.8394h72.1243l.4785-11.9593H71.6848a4.8394,4.8394,0,0,1-4.8393-4.8394v-5.6335a4.8394,4.8394,0,0,1,4.8393-4.8394h76.4675l27.26-43.9161,6.5125-10.4918h0V66.2567q0-.3792-.019-.7538c-.0068-.1327-.02-.2638-.03-.3956-.0045-.0581-.0093-.1162-.0133-.1745s-.0074-.1167-.0133-.1745c-.0075-.0735-.0183-.1461-.0278-.219s-.0183-.1461-.0279-.2191c-.013-.0982-.0227-.1975-.0377-.2951-.0278-.1817-.0622-.3611-.0966-.5406-.0058-.03-.0112-.06-.0163-.09s-.01-.0606-.0162-.09c-.0339-.1657-.0743-.329-.1138-.4926-.0174-.0721-.0318-.1454-.05-.2171-.045-.1748-.0963-.3471-.1476-.5193q-.0129-.0438-.025-.0881c-.0081-.0295-.0161-.059-.0251-.088-.0574-.1847-.121-.3666-.1855-.5481-.0079-.022-.0153-.0443-.0226-.0666s-.0146-.0446-.0226-.0665c-.0335-.0914-.0711-.1808-.1069-.271s-.07-.1813-.1068-.2709c-.017-.0411-.0318-.0833-.0491-.1242-.0387-.0914-.0815-.1806-.1225-.2708s-.08-.1813-.1225-.2708l-.0244-.054c-.008-.0181-.016-.0363-.0245-.0541-.0948-.1967-.195-.39-.2982-.5821l-.0128-.0249-.0128-.025c-.0551-.1014-.1149-.2-.1724-.3s-.1127-.2014-.1724-.3l-.0082-.0141q-.1815-.299-.377-.5886l-.0044-.0067q-.1967-.291-.4064-.5719l-.0013-.0018-.0013-.0018q-.2032-.2722-.4194-.5344l-.0081-.01-.0081-.01q-.2239-.2718-.46-.5325h0c-.0764-.0843-.1567-.1648-.2351-.2472s-.155-.1665-.2352-.2471l-.0151-.0159c-5.86-.02-11.83-.0392-17.8616-.0587q.229.7574.4316,1.526a43.9246,43.9246,0,0,1,1.3276,7.9333q.1215,1.6319.1222,3.295A44.137,44.137,0,1,1,75.3362,55.5572l-6.8093-.0227A11.4194,11.4194,0,0,0,57.1075,66.9539V211.217a12.1742,12.1742,0,0,0,10.7561,12.0217M93.4851,121.1829a3.4059,3.4059,0,0,1,3.4059-3.4059h41.24a3.406,3.406,0,0,1,3.406,3.4059v2.4559a3.406,3.406,0,0,1-3.406,3.4059H96.891a3.4059,3.4059,0,0,1-3.4059-3.4059Z"/>
      <g id="bcc43755-b9cf-4abf-b2f0-e7a3f819b4db" data-name="4">
        <g>
          <path class="a6f00d58-c3d1-40c4-aa67-e35b4e8ee2df" d="M184.3509,149.996v-5.3741l-2.4262,3.9085v40.7914a12.5209,12.5209,0,0,1,2.4262.8057V149.996Z"/>
          <path class="a6f00d58-c3d1-40c4-aa67-e35b4e8ee2df" d="M151.39,227.442H67.6839a14.6975,14.6975,0,0,1-14.6861-14.6862V66.2567A14.7028,14.7028,0,0,1,67.6839,51.5705h9.1019q-.8167,1.9482-1.45,3.9867A44.1385,44.1385,0,1,0,161.648,68.5826q0-1.6624-.1222-3.295a43.9246,43.9246,0,0,0-1.3276-7.9333q-.2025-.7685-.4316-1.526-.3294-1.089-.7122-2.1541t-.8184-2.1037h9.0026q.38,0,.7553.0192c.04.002.0786.0067.1183.009.21.0124.42.0268.6272.048.0229.0023.0456.0056.0683.0087s.0454.0061.0683.0087c.1.0111.1992.0256.299.0381s.2.023.2991.0382c.0264.004.0525.0091.0787.0141s.0524.01.0787.0141c.0948.0156.1885.0341.2829.0507s.1894.0315.2829.0507c.0475.01.094.0225.1413.0327.1909.0412.3814.0834.5695.132.0412.0106.0815.0239.1227.0349.1926.0516.3848.1045.5742.1637.0388.0121.0764.0266.115.039.1908.0613.3809.1241.5683.1929l.0258.01.0259.01c.1037.0386.2053.0813.308.1219s.2066.0787.308.1218l.0119.0054q.3234.1377.6391.29l.0028.0015q.32.1545.6308.324l.0125.0072a14.7329,14.7329,0,0,1,2.0549,1.3615c.0921.0725.1859.1429.2762.2176l.0021.0018.0021.0018q.27.2235.5292.4594l.0006.0006.0007.0007c.0868.079.17.162.2545.243s.1715.16.2544.2431l0,0,.0151.0159c.08.0806.1568.1648.2352.2471s.1587.1629.2351.2472h0q.2364.2607.46.5325l.0081.01.0081.01q.2154.2625.4194.5344l.0013.0018.0013.0018q.21.2809.4064.5719l.0044.0067q.195.29.377.5886l.0082.0141c.06.0986.1149.2.1724.3s.1173.1986.1724.3l.0128.025.0128.0249c.1032.1917.2034.3854.2982.5821.0085.0178.0165.036.0245.0541l.0244.054c.0423.09.0815.1806.1225.2708s.0838.1794.1225.2708c.0173.0409.0321.0831.0491.1242.0369.09.071.1807.1068.2709s.0734.18.1069.271c.008.0219.0152.0443.0226.0665s.0147.0446.0226.0666c.0645.1815.1281.3634.1855.5481.009.029.017.0585.0251.088s.0164.0589.025.0881c.0513.1722.1026.3445.1476.5193.0185.0717.0329.145.05.2171.04.1636.08.3269.1138.4926.0062.03.0111.06.0162.09s.01.06.0163.09c.0344.18.0688.3589.0966.5406.015.0976.0247.1969.0377.2951.01.073.0182.1462.0279.2191s.02.1455.0278.219c.0059.0578.0092.1163.0133.1745s.0088.1164.0133.1745c.01.1318.0235.2629.03.3956q.0189.3746.019.7538V80.5362h0l2.4262-3.9085h0V66.2567a17.1316,17.1316,0,0,0-17.1123-17.1123H157.13a44.125,44.125,0,0,0-79.2375,0H67.6839A17.1316,17.1316,0,0,0,50.5716,66.2567V212.7558a17.11,17.11,0,0,0,17.1123,17.1123h86.2792a12.6731,12.6731,0,0,1-2.5728-2.4261ZM79.4417,51.5705q.2767-.6171.5713-1.224t.6095-1.2021a41.8825,41.8825,0,0,1,3.7689-5.8771q.4239-.5532.8654-1.0919.8832-1.0772,1.8355-2.0934.4758-.5078.9682-1A42.0352,42.0352,0,0,1,93.3713,34.59q.568-.4049,1.15-.7911a41.66,41.66,0,0,1,59.8781,15.3453q.63,1.19,1.1809,2.4261.4643,1.0345.8749,2.097t.7619,2.1525a41.7245,41.7245,0,1,1-77.7754-4.2495Z"/>
          <path class="a6f00d58-c3d1-40c4-aa67-e35b4e8ee2df" d="M81.1619,63.7307a1.196,1.196,0,0,0,.4249-.0776,1.2176,1.2176,0,0,0,.6261-.54,1.2539,1.2539,0,0,0,.1448-.409,35.5857,35.5857,0,0,1,3.8737-11.1337c.3407-.6219.7048-1.2286,1.08-1.8274.1252-.2.2466-.4018.3757-.5987A35.9621,35.9621,0,0,1,98.2654,38.6458q.9732-.6275,1.9887-1.1925.5075-.2823,1.025-.5484.974-.5008,1.9817-.9428t2.0463-.8219q1.0384-.38,2.1062-.6964t2.1617-.5664q.5469-.125,1.1-.2329a35.6359,35.6359,0,0,1,36.6593,15.5q.7748,1.1816,1.4562,2.4261.8371,1.5285,1.5258,3.1438.2292.5379.4412,1.0848a35.3554,35.3554,0,0,1,1.9068,6.9051,1.2435,1.2435,0,0,0,.2644.5837,1.2174,1.2174,0,0,0,.3166.2733,1.1957,1.1957,0,0,0,.6147.1695,1.2148,1.2148,0,0,0,1.2106-1.1483,1.2385,1.2385,0,0,0-.0154-.2744q-.1411-.8394-.3189-1.6663t-.3908-1.64q-.4262-1.6261-.99-3.1942a37.8841,37.8841,0,0,0-1.8261-4.237q-.6246-1.24-1.337-2.4261-.4631-.7738-.9612-1.5236t-1.03-1.4741q-1.0635-1.4486-2.257-2.7906-.596-.67-1.2225-1.3119a38.3336,38.3336,0,0,0-6.9627-5.6349q-1.5231-.9614-3.14-1.78a37.7584,37.7584,0,0,0-6.7819-2.6437l-.0068-.002-.0967-.0275c-.0322-.0092-.0644-.0185-.0967-.0275q-.669-.1839-1.348-.343c-.0716-.017-.1435-.0331-.2152-.05s-.1432-.0335-.2151-.05q-.6033-.1349-1.2129-.2513c-.203-.0386-.4071-.0737-.6112-.1091-.3656-.0631-.7315-.1241-1.1-.1766-.13-.0186-.26-.0335-.3909-.05s-.26-.0337-.3909-.05c-.1634-.02-.3276-.0369-.4912-.0561s-.3266-.0405-.4913-.0562c-.3319-.0318-.6667-.0529-1.001-.0761-.2692-.0185-.5366-.0424-.8073-.0553q-.8546-.0411-1.7187-.0434h0c-.042,0-.0831-.0029-.125-.0029l-.0069,0c-.626,0-1.2477.0175-1.8663.0475-.1777.0086-.3532.0252-.53.0363-.22.0137-.4381.0337-.6573.05s-.4395.0288-.6573.05c-.1123.0109-.2236.0251-.3351.0383s-.2234.0254-.3351.0383c-.1909.0219-.38.0486-.5707.0725s-.3816.0449-.5708.0725c-.1244.0181-.2478.04-.3715.06s-.2478.0391-.3715.06c-.3457.0576-.69.1177-1.0327.1845-.266.0517-.53.1073-.7944.1645q-.4722.1028-.94.217c-.2818.0687-.5626.1393-.8418.2142-.2823.0759-.5623.1569-.8419.2391-.3.0881-.6.1764-.8977.2717-.24.077-.4765.16-.714.2416-.3293.1128-.659.2247-.9842.3463-.16.06-.317.1257-.476.1877-1.149.4482-2.2682.9551-3.3609,1.5071-.74.3739-1.47.765-2.1814,1.1859l-.0181.01-.0181.0105c-.2188.13-.4315.2685-.6471.403s-.4339.2648-.647.403c-.0464.03-.0933.0591-.1395.0894q-.6222.4074-1.2264.8393c-.0508.0362-.102.0721-.1526.1086q-.606.4356-1.1934.8943c-.0415.0323-.0827.0649-.124.0975q-.6022.4737-1.185.97l-.0561.0486A38.3935,38.3935,0,0,0,86.3678,46.77q-.0471.0668-.0948.1332c-.0317.0442-.0637.0884-.0948.1332-.1121.1625-.2185.3291-.3273.494s-.22.3278-.3274.4939-.2154.3316-.32.5c-.128.2048-.25.4136-.374.621-.0513.0856-.1039.17-.1545.2564q-.1982.3371-.39.6779-.2152.3851-.4222.7751-.189.3562-.37.7167c-.0249.0495-.0484.1-.0731.1493-.1064.214-.213.4277-.3153.644-.0889.187-.171.3776-.2562.5665s-.1733.3762-.2561.5665q-.0462.1068-.0931.2133c-.0313.071-.0631.1417-.0931.2134q-.3443.8184-.6524,1.6548-.2967.81-.558,1.6362T80.71,58.8826q-.4484,1.6835-.7429,3.4254a.778.778,0,0,0-.0056.0995c-.0013.0331-.0054.0666-.0055.0995A1.2108,1.2108,0,0,0,81.1619,63.7307Z"/>
        </g>
        <path class="a6f00d58-c3d1-40c4-aa67-e35b4e8ee2df" d="M203.5173,211.891a10.3386,10.3386,0,0,0-2.7042-2.8q-.2064-.1454-.42-.2806a10.1681,10.1681,0,0,0-1.3438-.7152,10.08,10.08,0,0,0-4.0681-.8522H189.368V201.63a10.0916,10.0916,0,0,0-1.7318-5.6645,10.2962,10.2962,0,0,0-3.2853-3.0959,10.2442,10.2442,0,0,0-5.1674-1.4237h-2.1456a9.5461,9.5461,0,0,0-1.2549.0946c-.1373.0182-.2761.0315-.412.0541q-.4974.0823-.9775.2119a10.1051,10.1051,0,0,0-2.6889,1.164,10.2481,10.2481,0,0,0-3.528,3.6581,10.1111,10.1111,0,0,0-1.3228,5.0014v5.6133h-5.6133a10.1955,10.1955,0,0,0-10.1841,10.1841v2.1456a10.1974,10.1974,0,0,0,10.1841,10.1845h5.6133V235.37a10.1958,10.1958,0,0,0,10.1841,10.1846h2.1456A10.1963,10.1963,0,0,0,189.368,235.37v-5.6128h5.6128a10.2058,10.2058,0,0,0,10.1846-10.1845v-2.1456a10.0812,10.0812,0,0,0-1.1648-4.7143Q203.7779,212.29,203.5173,211.891Zm-.7781,7.6817a7.7831,7.7831,0,0,1-7.7584,7.7584H188.155a1.2129,1.2129,0,0,0-1.2131,1.213V235.37a7.7672,7.7672,0,0,1-7.7584,7.7584h-2.1456a7.6446,7.6446,0,0,1-2.5877-.45,7.7946,7.7946,0,0,1-.94-.409q-.2271-.117-.4453-.248A7.7541,7.7541,0,0,1,169.28,235.37v-6.8259a1.236,1.236,0,0,0-1.213-1.213h-6.8264a7.7543,7.7543,0,0,1-6.6782-3.83h0a7.7007,7.7007,0,0,1-1.08-3.9286v-2.1456a7.7665,7.7665,0,0,1,7.7579-7.758h6.8264a1.2129,1.2129,0,0,0,1.213-1.2131V201.63a7.69,7.69,0,0,1,1.4434-4.4911q.2269-.3168.4838-.61t.5409-.5583a7.7593,7.7593,0,0,1,5.29-2.0989h2.1456a7.7048,7.7048,0,0,1,2.7412.5094q.2838.1077.5568.2351t.5338.2763a7.8155,7.8155,0,0,1,3.9266,6.7371v6.8263a1.2129,1.2129,0,0,0,1.2131,1.2131h6.8258a7.74,7.74,0,0,1,5.9137,2.748q.2.2355.3788.4877t.34.5176a7.7,7.7,0,0,1,1.1261,4.0047Z"/>
      </g>
      <g id="a9577e5f-e9d2-4b1a-a434-bb29c269781d" data-name="3">
        <g>
          <path class="a6f00d58-c3d1-40c4-aa67-e35b4e8ee2df" d="M132.1753,166.9019c-1.94-1.1724-3.6654-2.2159-5.5715-2.1405a5.0611,5.0611,0,0,0-1.3535.2432,5.5164,5.5164,0,0,0-3.3553,3.5235c-.5449,1.2008-.93,1.9575-1.9494,2.3622a2.8867,2.8867,0,0,1-1.0517.2029c-1.5477.0126-3.2263-1.1137-5.1144-2.3807-2.3946-1.6071-5.07-3.4007-8.2312-3.2808a8.0277,8.0277,0,0,0-1.3852.1747,8.1671,8.1671,0,0,0-4.9224,3.4743c-.9962,1.2443-1.7831,2.2271-3.511,2.4839a5.0324,5.0324,0,0,1-.7687.0563c-1.7431-.0086-3.1629-.9612-4.901-2.1275-.5068-.34-1.0306-.6908-1.5816-1.0282a11.9979,11.9979,0,0,0-6.2592-2.0064c-3.2021-.0559-6.3788,1.2543-9.49,3.8861a1.2133,1.2133,0,0,0,1.567,1.8528c2.6494-2.2414,5.2963-3.3748,7.8821-3.3127,2.6863.045,4.5533,1.2974,6.53,2.6232.2622.1759.5259.3522.7917.5259a13.4416,13.4416,0,0,0,3.2357,1.656,7.3393,7.3393,0,0,0,2.2464.357,7.5114,7.5114,0,0,0,1.1036-.0829c2.67-.3966,3.9337-1.9746,5.0485-3.3667.9645-1.2046,1.7973-2.2447,3.5385-2.619a5.4473,5.4473,0,0,1,1.0288-.12,7.5222,7.5222,0,0,1,3.45.8759c.2791.136.5565.2836.8323.44.5514.3124,1.0963.659,1.6366,1.0152.27.1781.5391.3585.807.5384,1.9881,1.3338,4.0267,2.7019,6.1965,2.7963a5.3,5.3,0,0,0,2.2166-.3787,6.0082,6.0082,0,0,0,3.2639-3.615c.5458-1.2041.9027-1.9007,1.885-2.2148a2.6272,2.6272,0,0,1,1.0209-.1194c1.0382.08,2.1817.7385,3.91,1.7826a24.3081,24.3081,0,0,0,9.4463,3.7908,20.9462,20.9462,0,0,0,2.99.2307q.5031.0036,1.0082-.0149a3.6465,3.6465,0,0,1-.8289-1.747,3.6177,3.6177,0,0,1-.0546-.66,18.934,18.934,0,0,1-2.7518-.2075A21.9473,21.9473,0,0,1,132.1753,166.9019Z"/>
          <path class="a6f00d58-c3d1-40c4-aa67-e35b4e8ee2df" d="M88.9083,141.7691c-.9306,1.2932-1.549,2.09-2.4976,2.1651-1.152.09-2.1627-.9326-3.3362-2.1182-1.47-1.485-3.1353-3.1629-5.62-2.9573-1.7743.1507-3.4281,1.2434-4.9155,3.2483a1.213,1.213,0,1,0,1.9485,1.4452c1.0543-1.4211,2.1216-2.1868,3.1722-2.2759,1.3538-.1189,2.4363.98,3.6913,2.247,1.324,1.3372,2.8152,2.8436,4.9023,2.8432.1144,0,.231-.0043.3492-.0138a4.0976,4.0976,0,0,0,1.616-.469,7.4147,7.4147,0,0,0,2.3865-2.3207c.0925-.1265.1833-.2528.2731-.3775a6.3,6.3,0,0,1,2.958-2.709,3.6943,3.6943,0,0,1,1.2535-.1667c1.9079.0639,4.2345,1.446,6.9376,4.1276a1.2133,1.2133,0,0,0,1.7087-1.7229c-3.2662-3.24-6.2416-4.8587-8.8718-4.8315a5.97,5.97,0,0,0-1.7651.282c-.0684.0218-.1281.053-.1947.0769A8.702,8.702,0,0,0,88.9083,141.7691Z"/>
          <path class="a6f00d58-c3d1-40c4-aa67-e35b4e8ee2df" d="M131.9663,138.147c-1.74.8112-2.203,2.6161-2.5749,4.0671-.2881,1.1235-.508,1.8684-.9241,1.9864a.6561.6561,0,0,1-.1566.0224c-.8239.022-2.2409-1.2713-3.3968-2.3268-1.8427-1.6823-3.919-3.575-6.3212-3.5172a4.4507,4.4507,0,0,0-.4848.0382c-2.4012.32-4.3459,2.5749-5.78,6.7017a1.213,1.213,0,1,0,2.2916.7961c1.0931-3.145,2.41-4.9063,3.809-5.093a1.9291,1.9291,0,0,1,.2829-.0148c1.4306.0269,3.0912,1.5342,4.5666,2.8807.2024.1848.4057.37.61.5535.4081.3662.82.7226,1.2362,1.0442a9.025,9.025,0,0,0,1.2643.8349,4.9151,4.9151,0,0,0,.9711.3984,3.39,3.39,0,0,0,.9938.1325,3.07,3.07,0,0,0,.7745-.1166c1.79-.5066,2.247-2.2873,2.6138-3.7184.3317-1.295.5985-2.1669,1.25-2.4706a1.6823,1.6823,0,0,1,.67-.1389c.0825-.0023.1715-.0007.2674.0056a9.3129,9.3129,0,0,1,3.8492,1.511c.4678.2766.977.6,1.5309.978q.4154.2833.8648.608c.6.4336,1.2454.9247,1.9411,1.48s1.4412,1.176,2.24,1.868c.0236.02.05.0352.0747.0535v0l.1226-3.0644v0c-4.8574-4.023-8.4224-5.9345-10.976-5.8639A4.0335,4.0335,0,0,0,131.9663,138.147Z"/>
        </g>
        <g>
          <path class="a6f00d58-c3d1-40c4-aa67-e35b4e8ee2df" d="M79.6854,195.4556a1.1358,1.1358,0,0,0-.46.077l-2.0187.8449.255-2.2246a1.0056,1.0056,0,0,0-.313-.77.9548.9548,0,0,0-.3122-.1893,1.0433,1.0433,0,0,0-1.1732.3324.8732.8732,0,0,0-.0963.1757,1.0777,1.0777,0,0,0-.0729.4512l.23,2.2246-2.0187-.8449a1.1358,1.1358,0,0,0-.46-.077.9108.9108,0,0,0-.3742.08.9853.9853,0,0,0-.5716.892,1.0591,1.0591,0,0,0,.1024.4489.976.976,0,0,0,.0829.1423.92.92,0,0,0,.6065.3806l2.1727.3829-1.5077,1.79a.8492.8492,0,0,0-.23.5618,1.0828,1.0828,0,0,0,1.0479,1.0218.5494.5494,0,0,0,.082-.0063.737.737,0,0,0,.1909-.0568,1.1685,1.1685,0,0,0,.5189-.4988l1.1248-1.9686,1.0738,1.9686a1.3133,1.3133,0,0,0,.31.369.8585.8585,0,0,0,.417.1866.6571.6571,0,0,0,.0907.0063.8593.8593,0,0,0,.1906-.0218,1.0874,1.0874,0,0,0,.5118-.2877,1.0169,1.0169,0,0,0,.3194-.7123.8981.8981,0,0,0-.204-.5618l-1.5337-1.79,2.1727-.3829a.9814.9814,0,0,0-.154-1.9437Z"/>
          <path class="a6f00d58-c3d1-40c4-aa67-e35b4e8ee2df" d="M91.43,195.4556a1.1358,1.1358,0,0,0-.46.077l-2.0186.8449.2549-2.2246a1.0558,1.0558,0,0,0-.1858-.6269.9152.9152,0,0,0-.127-.1431.9837.9837,0,0,0-.658-.2518,1.1676,1.1676,0,0,0-.1905.0156,1.0561,1.0561,0,0,0-.3562.1255.92.92,0,0,0-.45.8807l.23,2.2246-2.0186-.8449a1.1356,1.1356,0,0,0-.46-.077.9086.9086,0,0,0-.3743.08.9481.9481,0,0,0-.3.2141.9909.9909,0,0,0-.2716.6779,1.0484,1.0484,0,0,0,.1853.5912.9147.9147,0,0,0,.6066.3806l2.1726.3829-1.5078,1.79a.85.85,0,0,0-.23.5618,1.0827,1.0827,0,0,0,1.0478,1.0218.7385.7385,0,0,0,.3768-.1178,1.069,1.069,0,0,0,.2124-.1728,1.4316,1.4316,0,0,0,.2026-.2713l1.1248-1.9686,1.0739,1.9686a.9839.9839,0,0,0,.8179.5619.8584.8584,0,0,0,.1905-.0218,1.0882,1.0882,0,0,0,.5119-.2877,1.0173,1.0173,0,0,0,.3193-.7123.8979.8979,0,0,0-.2039-.5618l-1.5337-1.79,2.1726-.3829a.9814.9814,0,0,0-.154-1.9437Z"/>
          <path class="a6f00d58-c3d1-40c4-aa67-e35b4e8ee2df" d="M103.1753,195.4556a1.3151,1.3151,0,0,0-.3269.0325.8619.8619,0,0,0-.133.0445l-2.0186.8449.2549-2.2246a.9646.9646,0,0,0-.9708-1.0218,1.0961,1.0961,0,0,0-.5468.1411.8841.8841,0,0,0-.2808.2538.9168.9168,0,0,0-.1549.3846,1.1967,1.1967,0,0,0-.0144.2423l.23,2.2246-2.0187-.8449a.8654.8654,0,0,0-.133-.0445,1.1527,1.1527,0,0,0-.2372-.0313c-.0338-.0012-.0642-.0012-.09-.0012a.9814.9814,0,0,0-.154,1.9437l2.1726.3829L98,198.6771l-.7539.8949a1.64,1.64,0,0,0-.1114.1591.7743.7743,0,0,0-.1078.2716.7508.7508,0,0,0-.0108.1311.9614.9614,0,0,0,.19.5593,1.1273,1.1273,0,0,0,.6586.4407.9306.9306,0,0,0,.1991.0218.55.55,0,0,0,.0822-.0063,1.0408,1.0408,0,0,0,.71-.5556l1.1248-1.9686h0l1.0737,1.9686a.8894.8894,0,0,0,1.3657.38,1.1639,1.1639,0,0,0,.2854-.2808.97.97,0,0,0,.1886-.5593.8326.8326,0,0,0-.1075-.4132,1.2163,1.2163,0,0,0-.0964-.1486l-1.5338-1.79,2.1727-.3829a.9814.9814,0,0,0-.154-1.9437Z"/>
          <path class="a6f00d58-c3d1-40c4-aa67-e35b4e8ee2df" d="M115.5279,195.6855a.941.941,0,0,0-.2334-.15.9108.9108,0,0,0-.3743-.08c-.0255,0-.0558,0-.09.0012s-.0714.0036-.1113.0084a.94.94,0,0,0-.2589.0674l-2.0186.8449.2549-2.2246a.9646.9646,0,0,0-.9708-1.0218.9441.9441,0,0,0-.9968,1.0218l.1149,1.1123.115,1.1123-2.0186-.8449a.8654.8654,0,0,0-.133-.0445,1.3155,1.3155,0,0,0-.3269-.0325.9814.9814,0,0,0-.154,1.9437l2.1726.3829-1.5077,1.79a.849.849,0,0,0-.23.5618.9151.9151,0,0,0,.0882.3862,1.1406,1.1406,0,0,0,.5693.5515.8644.8644,0,0,0,1.1821-.4778l1.1248-1.9686h0l.5369.9843.5369.9843a1.4156,1.4156,0,0,0,.203.2713.9932.9932,0,0,0,.3223.2275.7465.7465,0,0,0,.2926.0631,1.0783,1.0783,0,0,0,1.0218-1.0218.8981.8981,0,0,0-.204-.5618l-1.5337-1.79,2.1726-.3829a.92.92,0,0,0,.6067-.3806,1.0033,1.0033,0,0,0,.0828-.1423,1.0589,1.0589,0,0,0,.1023-.4489.9731.9731,0,0,0-.0413-.28A.9967.9967,0,0,0,115.5279,195.6855Z"/>
          <path class="a6f00d58-c3d1-40c4-aa67-e35b4e8ee2df" d="M127.2,195.6281a.9283.9283,0,0,0-.1609-.0926.9086.9086,0,0,0-.3743-.08c-.0255,0-.0558,0-.09.0012a1.0255,1.0255,0,0,0-.37.0758l-2.0186.8449.2549-2.2246a1.0056,1.0056,0,0,0-.313-.77.9543.9543,0,0,0-.3121-.1893.9975.9975,0,0,0-.3457-.0625,1.138,1.138,0,0,0-.3749.0625.8963.8963,0,0,0-.549.5081,1.0761,1.0761,0,0,0-.073.4512l.115,1.1123.1151,1.1123-2.0186-.8449a1.1358,1.1358,0,0,0-.46-.077.9814.9814,0,0,0-.154,1.9437l2.1726.3829-1.5077,1.79a.849.849,0,0,0-.23.5618.9151.9151,0,0,0,.0882.3862,1.1395,1.1395,0,0,0,.5693.5515.9783.9783,0,0,0,.39.0841.5517.5517,0,0,0,.0821-.0063.7375.7375,0,0,0,.1908-.0568,1.1685,1.1685,0,0,0,.5189-.4988l1.1248-1.9686h0l1.0739,1.9686a1.53,1.53,0,0,0,.0989.1491,1.2117,1.2117,0,0,0,.2112.22.9824.9824,0,0,0,.1082.0751.7839.7839,0,0,0,.3994.1178.8593.8593,0,0,0,.1906-.0218.9882.9882,0,0,0,.1846-.0623,1.0807,1.0807,0,0,0,.6467-.9377.8987.8987,0,0,0-.204-.5618l-.7669-.8949-.7669-.8949,2.1727-.3829a.9321.9321,0,0,0,.4974-.2513.9224.9224,0,0,0,.1092-.1293,1.0484,1.0484,0,0,0,.1853-.5912A.991.991,0,0,0,127.2,195.6281Z"/>
        </g>
      </g>
      <g id="e6c5c010-405b-4197-8f0d-5655b3211ef5" data-name="2">
        <path class="a6f00d58-c3d1-40c4-aa67-e35b4e8ee2df" d="M210.4619,68.5593a1.2132,1.2132,0,1,0,.5941-2.243,1.21,1.21,0,0,0-.9849.5726,1.2081,1.2081,0,0,0-.1818.6856,1.2206,1.2206,0,0,0,.1057.4511A1.2071,1.2071,0,0,0,210.4619,68.5593Z"/>
        <path class="a6f00d58-c3d1-40c4-aa67-e35b4e8ee2df" d="M217.1144,72.221a1.2123,1.2123,0,0,0,1.47.9617,1.213,1.213,0,1,0-1.47-.9617Z"/>
        <path class="a6f00d58-c3d1-40c4-aa67-e35b4e8ee2df" d="M203.2563,64.0865a1.2069,1.2069,0,0,0,.6855.1817,1.2213,1.2213,0,0,0,.4512-.1055,1.2125,1.2125,0,0,0,.1427-2.1375,1.2206,1.2206,0,0,0-.2207-.108,1.2132,1.2132,0,0,0-1.0587,2.1693Z"/>
        <path class="a6f00d58-c3d1-40c4-aa67-e35b4e8ee2df" d="M191.5615,69.6114,187.9562,75.42l-3.6053,5.8083-2.4262,3.9085-3.2572,5.2474L175.41,95.6313l-12.2012,19.6564-12.2012,19.6564-1.8822,3.0322-1.8822,3.0322-.0082.018-.0082.0181c-.0195.0338-.0322.0706-.0482.1059s-.0356.0693-.0482.1059c-.0091.0268-.0167.054-.0242.0814-.009.0343-.0119.07-.0178.1048s-.0149.0693-.0178.1048c-.0016.0177-.0082.0345-.0089.0522q-.0867,2.1642-.1732,4.3284t-.1732,4.3284l-.4785,11.9593-.1645,4.1133-.1646,4.1134-.0048.1209a1.2138,1.2138,0,0,0,.5724,1.0793,1.1768,1.1768,0,0,0,.6073.1743,1.3022,1.3022,0,0,0,.2113-.0144,1.3171,1.3171,0,0,0,.3041-.0853.93.93,0,0,0,.0984-.04l8.489-4.6348,8.489-4.6348,6.5369-3.569,1.9269-1.0521c.0116-.0064.0206-.0166.0321-.0233a1.2145,1.2145,0,0,0,.19-.1382c.0206-.0185.04-.0381.0595-.0578a1.2062,1.2062,0,0,0,.136-.1668c.0095-.0139.0229-.0245.0317-.0388l1.7986-2.8974,6.5384-10.5336,2.4262-3.9085,5.4331-8.7529,5.433-8.7528,10.2607-16.53,10.2607-16.53,2.1674-3.4917.0053.0033a4.0649,4.0649,0,0,0,.5443.2837,4.014,4.014,0,0,0,.5658.1941,3.8036,3.8036,0,0,0,.9525.1236q.151,0,.2959-.01a4.4058,4.4058,0,0,0,1.2482-.2809c.1357-.0516.2575-.1052.3631-.156s.1954-.099.2671-.14.1252-.0745.1587-.0964l.0349-.0233a3.9563,3.9563,0,0,0,1.06-1.0809,4.18,4.18,0,0,0,.219-.3715,4.3467,4.3467,0,0,0,.2532-.5861,3.9223,3.9223,0,0,0,.18-.7205,4.2729,4.2729,0,0,0-.02-1.1482,4.4186,4.4186,0,0,0-.1765-.7518,3.874,3.874,0,0,0-.7542-1.3345,4.0488,4.0488,0,0,0-.9208-.7828l-.0053-.0033,4.585-7.3865,2.8093-4.5259a5.0533,5.0533,0,0,0,.7474-3.0048,5.1257,5.1257,0,0,0-.4714-1.8287,24.1574,24.1574,0,0,0-8.6861-10.06l-.0009-.0005c-.238-.1547-.4759-.2969-.714-.44l-.0006,0c-.1544-.0928-.3089-.1848-.4633-.2728-.1687-.0962-.3371-.1883-.5056-.2789-.1541-.083-.3082-.1655-.462-.2439-.1679-.0856-.3354-.1669-.5028-.2473-.1532-.0736-.3065-.1471-.4594-.2164-.1669-.0758-.3332-.1471-.4994-.2179-.0759-.0323-.1515-.0632-.2272-.0951s-.1517-.0648-.2272-.095c-.0829-.0333-.1652-.0637-.2477-.0953s-.1652-.0643-.2476-.0952c-.0747-.028-.149-.0548-.2237-.0826s-.1494-.0565-.2236-.0826c-.0821-.0289-.1633-.0551-.2448-.0824s-.1633-.0555-.2447-.0823c-.0735-.0241-.1466-.0471-.22-.0711s-.1471-.0487-.22-.071c-.08-.0247-.16-.0468-.24-.07s-.16-.0471-.24-.07c-.1448-.0411-.29-.0834-.4331-.1213-.0789-.0208-.1564-.0391-.2345-.0583s-.1565-.0394-.2344-.0583c-.0707-.0172-.141-.0336-.2116-.0507s-.1418-.0351-.2117-.0507c-.1552-.0349-.3075-.0651-.46-.0964-.1363-.0277-.2735-.057-.4079-.082-.1524-.0284-.3014-.0526-.4512-.0776-.1312-.0219-.2635-.0455-.3926-.0649-.1486-.0225-.2932-.0407-.4388-.06-.1254-.0166-.2525-.035-.3757-.0494-.1461-.0172-.2878-.03-.4308-.0446-.0586-.0059-.1169-.0115-.1757-.0176s-.1182-.0125-.1757-.0174c-.0737-.0064-.1447-.0107-.2168-.0157s-.1449-.0107-.2168-.0156c-.1042-.0072-.2111-.0161-.3131-.0218-.1484-.0083-.29-.013-.4342-.0185-.0921-.0035-.1875-.0089-.2775-.0114-.1516-.0042-.2963-.0051-.4419-.0066-.0754-.0007-.1547-.003-.2285-.0031-.216,0-.4251.0023-.6262.0072a4.9189,4.9189,0,0,0-1.382.2334,5.0392,5.0392,0,0,0-1.9671,1.1823,5.11,5.11,0,0,0-.7844.974l-1.4035,2.2611-1.4035,2.2611-4.585,7.3865,0,0a4.04,4.04,0,0,0-1.1113-.4757,3.8077,3.8077,0,0,0-.95-.1218,4.4469,4.4469,0,0,0-2.3619.7069,3.96,3.96,0,0,0-1.1613,1.2413,4.3387,4.3387,0,0,0-.47,1.1221,3.5723,3.5723,0,0,0-.0813.3956c-.0019.013-.0058.0432-.01.0883a4.4038,4.4038,0,0,0-.0032.75c.0063.0819.0152.168.0271.2576a4.4907,4.4907,0,0,0,.1143.5732,3.9125,3.9125,0,0,0,.8174,1.5584,4.0064,4.0064,0,0,0,.4242.422,4.0707,4.0707,0,0,0,.495.363l0,0Zm-39.8626,97.1159-3.286,1.7941.1262-3.1529.1262-3.1528.047-1.176a8.6543,8.6543,0,0,1,3.4649,1.176c.0365.0219.0738.0415.11.0641a8.5811,8.5811,0,0,1,2.1488,1.8977,8.8689,8.8689,0,0,1,.5487.7558Zm13.8094-7.54-5.546,3.0281-1.418.7742-1.418.7742a11.0214,11.0214,0,0,0-.86-1.1726c-.1035-.1253-.2013-.2545-.3107-.3758q-.2561-.284-.5336-.5522a11.0772,11.0772,0,0,0-1.8554-1.445q-.28-.1736-.5653-.3286a11.0559,11.0559,0,0,0-3.5779-1.21q-.3064-.0479-.6138-.0783l.3338-8.3455.1507-3.7649.1506-3.765c.1062-.0041.2186-.0057.3363-.0038s.2407.0072.3682.0169.2594.0238.3951.0432a5.7581,5.7581,0,0,1,.8511.1883q.22.0667.4461.1563a5.4718,5.4718,0,0,1,.9084.4649,5.544,5.544,0,0,1,1.0771.8937,5.6872,5.6872,0,0,1,.7207.9575,5.95,5.95,0,0,1,.4326.8769c.0518.1314.0945.2534.1294.3631s.0621.2069.083.2887a1.212,1.212,0,0,0,1.4178.8893,5.7689,5.7689,0,0,1,1.0923-.1085,5.9834,5.9834,0,0,1,1.4521.1657c.1333.0324.2689.0706.4059.1151a5.3972,5.3972,0,0,1,.834.35q.21.11.42.2446a5.56,5.56,0,0,1,.5263.377,5.5,5.5,0,0,1,.4478.4051,5.7972,5.7972,0,0,1,.69.8454c.12.1778.2242.3533.3151.5222a6.0845,6.0845,0,0,1,.3954.9008c.0432.1257.076.2363.1.3277a1.2119,1.2119,0,0,0,1.39.8834,5.8812,5.8812,0,0,1,.9309-.0882c.1681-.0032.351,0,.5455.0127a6.1639,6.1639,0,0,1,1.28.2188,5.6,5.6,0,0,1,1.7515.8446q.1816.1308.3446.2687t.3088.2807a5.7716,5.7716,0,0,1,1,1.3141c.08.143.15.283.2128.4178Zm-6.9037-13.8169,6.3064-10.16,10.49-16.9,6.5236-10.51,2.4262-3.9085,16.1313-25.9878,1.2351-1.99L207.75,79.66l-1.2351,1.99-22.1643,35.707-2.4262,3.9085-2.9131,4.6931-1.8081,2.9127-1.808,2.9128-2.2354,3.6012-2.2353,3.6012-2.7482,4.4275-1.7708,2.8527-1.7708,2.8527v0q-.1021-.1627-.2165-.3277t-.2419-.3306a7.9582,7.9582,0,0,0-1.6409-1.5957q-.2037-.1476-.4248-.2876-.2305-.1483-.4606-.2748a7.7577,7.7577,0,0,0-2.644-.8838Q158.8016,145.3895,158.6046,145.3707Zm56.5-59.4936-22.8711,36.8458-7.8822,12.6984-2.4262,3.9085L175.3881,149.86l-2.67,4.301h0a8.1764,8.1764,0,0,0-1.6009-1.84c-.1637-.14-.3284-.2793-.5122-.4117-.0554-.04-.1112-.0742-.1668-.1105s-.1111-.0747-.1668-.1105a7.9528,7.9528,0,0,0-.9361-.5185,8.0356,8.0356,0,0,0-.9263-.366,8.33,8.33,0,0,0-1.1089-.2755c-.2144-.0385-.4252-.0708-.627-.0922l4.3164-6.9539,4.4039-7.0947,3.2656-5.2609,3.2655-5.2608.7087-1.1417,1.7175-2.7668L208.5764,82.93l1.2351-1.99,4.7364,2.94,1.2966.8048Zm-9.654-34.04a2.7962,2.7962,0,0,1,2.523-1.3165c.6837.0351,1.43.1022,2.225.2146.637.09,1.3055.2107,1.9979.3687s1.4089.3534,2.1418.5929q.3665.12.7382.2545t.7476.2855q.4938.1981.9937.4244a23.2243,23.2243,0,0,1,6.1113,4.0371q.4541.416.87.8384c.5548.5625,1.06,1.13,1.5185,1.693s.8714,1.12,1.2415,1.6609c.34.4973.6335.9738.9048,1.4357.09.154.1883.3128.2714.4615.0093.0165.0165.0338.0241.0508s.0156.0341.0241.0509a2.7906,2.7906,0,0,1-.11,2.74l-1.042,1.6787-1.0421,1.6787L214.4777,62.09l-11.1108-6.8967Zm-5.4593,8.795,2.0964-3.3774,4.7657,2.9581v0L224.309,71.048l-2.0965,3.3775-2.0964,3.3774L202.66,66.9675l-4.7656-2.9581ZM192.1272,65.8a1.5737,1.5737,0,0,1,.1978-.4811,1.6269,1.6269,0,0,1,.2-.2594,1.6029,1.6029,0,0,1,.24-.2083,1.6241,1.6241,0,0,1,1.7883-.0592l.0076.0037,2.0541,1.2751,1.097.6809,1.0322.6407.7143.4434,8.2593,5.1267,5.0172,3.1144,5.0172,3.1143.5422.3366.5422.3366,2.0614,1.2794,0,.0006.0057.0028a1.6237,1.6237,0,0,1-1.7127,2.759l-.0049-.0039h0l0,.0006-1.0307-.64-1.0307-.64-.5421-.3366L216.04,81.95l-3.039-1.8864-15.2547-9.469-1.7466-1.0841-.5485-.34-.5485-.34-2.0542-1.2751-.0033-.0026-.0033-.0026a1.5979,1.5979,0,0,1-.3016-.2448,1.6171,1.6171,0,0,1-.3776-.6392,1.6758,1.6758,0,0,1-.0706-.3635A1.6509,1.6509,0,0,1,192.1272,65.8Zm1.4956,5.0911,3.0166,1.8725,3.0166,1.8724-1.2351,1.99-14.07,22.667-2.4262,3.9085-6.5217,10.5067-6.591,10.6181-6.591,10.6181-2.8353,4.5677L156.55,144.08h0a8.0715,8.0715,0,0,0-1.3355-1.6335,7.883,7.883,0,0,0-.7411-.6136q-.2018-.1472-.4207-.287l-.039-.0245-.0391-.0245-.0009-.0006a7.9622,7.9622,0,0,0-3.4555-1.1634l1.6724-2.6942,1.6723-2.6942,21.5451-34.7095,3.2582-5.2489,3.2581-5.2489,2.4262-3.9085,4.6359-7.4687Z"/>
      </g>
      <circle class="a6f00d58-c3d1-40c4-aa67-e35b4e8ee2df" cx="117.9496" cy="55.5345" r="9.3165"/>
      <path class="a6f00d58-c3d1-40c4-aa67-e35b4e8ee2df" d="M95.9526,89.301a21.997,21.997,0,0,1,43.9939,0"/>
    </g>
  </g>
</svg>
