<svg xmlns="http://www.w3.org/2000/svg" viewBox="0 0 253.89 283.33"><defs><style>.cls-1{fill:#fff;}</style></defs><g id="Layer_2" data-name="Layer 2"><g id="Layer_2-2" data-name="Layer 2"><path class="cls-1" d="M43.48,188.52c1.38,1.16,1.52,2.54.36,4.19l-3.67,5.14c-1,1.52-2.36,1.79-4.19.8-.23-.13-2.19-1.47-2.64-1.69a30.23,30.23,0,0,0-3-1.57A17.31,17.31,0,0,0,25,194.28a9,9,0,0,0-6.3,2.14,6.82,6.82,0,0,0-2.36,5.18c0,4.51,4,7.33,12.5,10.14,2,.67,3.44,1.16,4.29,1.43s2.19.8,4.11,1.61a37,37,0,0,1,4.28,2.14c.94.63,2.15,1.52,3.53,2.64,2.82,2.27,3.84,4.46,5,7.72a17.25,17.25,0,0,1,.8,5.41,19.43,19.43,0,0,1-6.43,15.09c-4.33,3.89-10.49,5.85-18.53,5.85q-15.48,0-25.19-10.54c-1-1.29-.85-2.59.4-3.93l4.73-5.09c1.34-1.38,2.68-1.34,4,.18Q16,240.82,24,240.81a17.55,17.55,0,0,0,8.88-2,6.71,6.71,0,0,0,.32-11.53c-2.1-1.47-5.59-2.94-10.41-4.46-2.19-.76-4.06-1.43-5.58-2.06A38.19,38.19,0,0,1,11.86,218a20.26,20.26,0,0,1-5-3.84,18.84,18.84,0,0,1-4.6-12.42,18.06,18.06,0,0,1,6.25-14.25c4.16-3.61,9.61-5.45,16.44-5.45A29.65,29.65,0,0,1,43.48,188.52Z"/><path class="cls-1" d="M70.8,185.52a8.15,8.15,0,0,1,2.37,5.9,8.18,8.18,0,0,1-8.26,8.22,7.71,7.71,0,0,1-5.76-2.42,8,8,0,0,1-2.37-5.8,8.15,8.15,0,0,1,2.37-5.9,7.74,7.74,0,0,1,5.76-2.41A8,8,0,0,1,70.8,185.52Zm-2.23,20.64a2.35,2.35,0,0,1,2.68,2.54v40.82c0,1.7-.89,2.55-2.68,2.55h-7.1a2.35,2.35,0,0,1-2.68-2.55V208.7a2.35,2.35,0,0,1,2.68-2.54Z"/><path class="cls-1" d="M123.63,252.74c5,3.08,7.46,7.46,7.46,13.09a14.53,14.53,0,0,1-7.19,12.95c-4.82,3-11.7,4.55-20.59,4.55s-15.67-1.47-20.54-4.42a14,14,0,0,1-7.28-12.68c0-7.55,4.82-13.18,13.35-16.08a6.6,6.6,0,0,1-2.1-5.05c0-2.68,1.39-4.73,4.11-6.12-5.85-3.39-9.6-9-9.6-15.63,0-5.94,2-10.54,5.85-13.84s9.2-4.92,15.94-4.92h21c2,0,3,1,3,3l-.09,4.29a2.4,2.4,0,0,1-3,2.63l-6.7-1.07a12.93,12.93,0,0,1,8.22,11.7,14.64,14.64,0,0,1-6.17,12.42c-4.1,3.08-9.46,4.6-16,4.6-4.15,0-6.12.71-6.12,2.9,0,2,2.06,3,6.12,3C111.84,248.05,118.63,249.61,123.63,252.74ZM103.4,273.46c4.69,0,8.35-.67,11-2s4-3.3,4-5.94c0-5.22-5.76-7.86-15-7.86a25,25,0,0,0-10.76,2c-2.82,1.34-4.25,3.31-4.25,5.85s1.34,4.6,4,5.94S98.71,273.46,103.4,273.46Zm0-58.33a11.31,11.31,0,0,0-7.28,2.15,7.3,7.3,0,0,0-2.68,6.07,7.55,7.55,0,0,0,2.68,6.17,11.11,11.11,0,0,0,7.28,2.23,11.07,11.07,0,0,0,7.24-2.23,7.67,7.67,0,0,0,2.63-6.17,7.41,7.41,0,0,0-2.63-6.07A11.27,11.27,0,0,0,103.4,215.13Z"/><path class="cls-1" d="M199.23,209.37c2.55,3,3.8,7.1,3.8,12.15V249.7a2.46,2.46,0,0,1-2.54,2.64H193c-1.65,0-2.45-.85-2.45-2.55l-.09-24.7c0-6-2.28-9-6.88-9-5.14,0-8.13,4.64-8.13,12.19v21.3a2.16,2.16,0,0,1-2.46,2.46h-7.59a2.46,2.46,0,0,1-2.5-2.55V224.83q0-9-7.24-9c-4.86,0-8.3,4.06-8.3,10.81v22.86c0,1.7-.9,2.55-2.64,2.55h-7.14c-1.74,0-2.64-.85-2.64-2.55V208.79a2.34,2.34,0,0,1,2.64-2.63h7.14a2.34,2.34,0,0,1,2.64,2.63v4.33q4.49-8.37,13.53-8.44c6,0,10.27,2.46,12.73,7.33a16.14,16.14,0,0,1,13.89-7.15C192.8,204.86,196.69,206.38,199.23,209.37Z"/><path class="cls-1" d="M247.81,209.28c4.07,3.18,6.08,8,6.08,14.61v25.72c0,1.66-.76,2.46-2.33,2.46H243.7c-1.38,0-2.1-.8-2.1-2.37V246c-3.17,5.05-7.9,7.59-14.24,7.59-5.32,0-9.65-1.29-13.09-3.93a12.92,12.92,0,0,1-5.14-10.89q0-14.75,22-14.83l10.4-.09v-.45c0-5.22-3.43-8.39-9.33-8.39-3.3,0-6.88,1.47-10.67,4.37a2.17,2.17,0,0,1-3.22-.53l-3.57-4.34c-1-1.2-.94-2.32.09-3.26a22.23,22.23,0,0,1,7.37-4.78,26.53,26.53,0,0,1,10.36-1.92Q241.72,204.59,247.81,209.28Zm-6.3,23H230.93c-6.3,0-9.42,2-9.42,5.85s2.9,5.85,8.75,5.85C236.87,243.94,241.38,239.79,241.51,232.24Z"/><path class="cls-1" d="M67.55,42.74l35.36,20.41a2.25,2.25,0,0,0,3.37-1.95V35.25a2.23,2.23,0,0,0-1.12-2L69.8,12.88a2.26,2.26,0,0,0-3.38,1.95v26A2.26,2.26,0,0,0,67.55,42.74Z"/><path class="cls-1" d="M183.15,102.94l-19.53,11.27a2.89,2.89,0,0,0-1.44,2.49V127a34.92,34.92,0,0,1-1.94,11.53,35.57,35.57,0,0,1-1.93,4.48,35,35,0,0,1-19.13,16.84,41,41,0,0,0,18.18-.63,41.32,41.32,0,0,0,4.82-1.62,40.67,40.67,0,0,0,24.45-29.38,39.5,39.5,0,0,0,.73-5.36c.07-.94.1-17.45.1-17.45A2.87,2.87,0,0,0,183.15,102.94Z"/><path class="cls-1" d="M174.9,5.13a12.55,12.55,0,0,0-6.19,1.58L115.34,37.52A2.89,2.89,0,0,0,113.9,40V86.24h0L69.8,60.78a2.26,2.26,0,0,0-3.38,1.95v26a2.24,2.24,0,0,0,1.13,1.95l45.22,26.11a2.26,2.26,0,0,1,1.13,1.94v11.58a2.25,2.25,0,0,1-3.38,1.93L69.8,108.68a2.25,2.25,0,0,0-3.38,1.95v26a2.24,2.24,0,0,0,1.13,1.95l46.35,26.76h0v0l1.63.94h0a16.34,16.34,0,0,0,20.85-5.49h0a15,15,0,0,0,.8-1.32,16.21,16.21,0,0,0,2-7.81l.11-96.92V53h0c.79-6.36,5.59-11.25,11.39-11.25a10.53,10.53,0,0,1,6.84,2.57h0a13.75,13.75,0,0,1,4.66,10.53v24a2.9,2.9,0,0,0,4.35,2.5L186,70.13a2.87,2.87,0,0,0,1.45-2.5V18.11A12.86,12.86,0,0,0,174.9,5.13Z"/><path class="cls-1" d="M105,116.7v3.68l-27.76-16a2.22,2.22,0,0,0-2.32.05l-.15.09-.15.08-.14.09-.15.08-.15.09-.14.08-.15.09-.15.08-.14.09-.15.08-.15.09-.14.08-.15.09-.15.08-.14.09-.15.08-.11.06,37.57,21.69V119.6Z"/><path class="cls-1" d="M107.07,66.46a5.94,5.94,0,0,1-2,.72v5.21l-27.76-16a2.22,2.22,0,0,0-2.33.06l-.15.08-.14.09-.15.09-.15.08-.14.09-.15.09-.15.08-.14.09-.15.09-.15.08-.14.09-.15.09-.14.08-.15.09-.15.09-.14.08-.15.09h0l37.62,21.72V61.74A6.06,6.06,0,0,1,107.07,66.46Z"/><path class="cls-1" d="M143,149v2.61a21.78,21.78,0,0,1-.13,2.28,30.77,30.77,0,0,0,3.72-2.52,31.51,31.51,0,0,0,8.32-10.11,32.12,32.12,0,0,0,1.72-4A31,31,0,0,0,158.36,127V116.7a6.71,6.71,0,0,1,3.35-5.8l19-11-.11-.06-.15-.09-.14-.08-.14-.08-.15-.08-.14-.09-.14-.08-.15-.08-.14-.09-.14-.08-.14-.08-.15-.09-.14-.08-.14-.08a2.86,2.86,0,0,0-2.95-.05L156.31,110a2.91,2.91,0,0,0-1.43,2.49v10.32A34.85,34.85,0,0,1,143,149Z"/><path class="cls-1" d="M110.11,35.25v4.23a6.71,6.71,0,0,1,3.31-5.27L166.8,3.39a16.89,16.89,0,0,1,5.14-1.82A12.14,12.14,0,0,0,166,0a12.64,12.64,0,0,0-6.18,1.57L112.5,28.91,77.28,8.57A2.24,2.24,0,0,0,75,8.63l-.15.08-.15.08-.14.09L74.37,9l-.15.09-.14.08-.15.09-.15.08-.14.09-.15.08-.15.08-.14.09-.15.08-.14.09-.15.08-.15.09-.1,0,34.56,20A6.08,6.08,0,0,1,110.11,35.25Z"/><path class="cls-1" d="M154.87,76.29l.17.1.18.1a1,1,0,0,0,.17.1l.17.1.18.1a1,1,0,0,0,.17.1l.17.11.18.1.17.1.18.1.17.1.17.1.18.1.17.1.17.1.18.1a1,1,0,0,0,.17.1l.17.1.18.1.17.1h0V54.85a10,10,0,0,0-3.3-7.61A7.17,7.17,0,0,0,152.83,46a14.46,14.46,0,0,1,.5,3.76v24A2.85,2.85,0,0,0,154.87,76.29Z"/></g></g></svg>